Interstate-Condensed_Ultra_Black.ufo
<glyph name="exclam" format="1">
  <advance width="286"/>
  <unicode hex="0021"/>
  <outline>
    <contour>
      <point x="70" y="242" type="line"/>
      <point x="27" y="437" type="line"/>
      <point x="27" y="700" type="line"/>
      <point x="260" y="700" type="line"/>
      <point x="260" y="437" type="line"/>
      <point x="216" y="242" type="line"/>
    </contour>
    <contour>
      <point x="143" y="-11" type="curve" smooth="yes"/>
      <point x="71" y="-11"/>
      <point x="19" y="32"/>
      <point x="19" y="104" type="curve" smooth="yes"/>
      <point x="19" y="176"/>
      <point x="71" y="217"/>
      <point x="143" y="217" type="curve" smooth="yes"/>
      <point x="216" y="217"/>
      <point x="268" y="176"/>
      <point x="268" y="104" type="curve" smooth="yes"/>
      <point x="268" y="32"/>
      <point x="216" y="-11"/>
    </contour>
  </outline>
</glyph>
<glyph name="quotedbl" format="1">
  <advance width="561"/>
  <unicode hex="0022"/>
  <outline>
    <contour>
      <point x="334" y="373" type="line"/>
      <point x="295" y="700" type="line"/>
      <point x="541" y="700" type="line"/>
      <point x="503" y="373" type="line"/>
    </contour>
    <contour>
      <point x="59" y="373" type="line"/>
      <point x="20" y="700" type="line"/>
      <point x="266" y="700" type="line"/>
      <point x="228" y="373" type="line"/>
    </contour>
  </outline>
</glyph>
<glyph name="numbersign" format="1">
  <advance width="645"/>
  <unicode hex="0023"/>
  <outline>
    <contour>
      <point x="88" y="0" type="line"/>
      <point x="88" y="119" type="line"/>
      <point x="26" y="119" type="line"/>
      <point x="26" y="297" type="line"/>
      <point x="88" y="297" type="line"/>
      <point x="88" y="403" type="line"/>
      <point x="26" y="403" type="line"/>
      <point x="26" y="581" type="line"/>
      <point x="88" y="581" type="line"/>
      <point x="88" y="700" type="line"/>
      <point x="297" y="700" type="line"/>
      <point x="297" y="581" type="line"/>
      <point x="348" y="581" type="line"/>
      <point x="348" y="700" type="line"/>
      <point x="557" y="700" type="line"/>
      <point x="557" y="581" type="line"/>
      <point x="619" y="581" type="line"/>
      <point x="619" y="403" type="line"/>
      <point x="557" y="403" type="line"/>
      <point x="557" y="297" type="line"/>
      <point x="619" y="297" type="line"/>
      <point x="619" y="119" type="line"/>
      <point x="557" y="119" type="line"/>
      <point x="557" y="0" type="line"/>
      <point x="348" y="0" type="line"/>
      <point x="348" y="119" type="line"/>
      <point x="297" y="119" type="line"/>
      <point x="297" y="0" type="line"/>
    </contour>
    <contour>
      <point x="288" y="279" type="line"/>
      <point x="357" y="279" type="line"/>
      <point x="357" y="421" type="line"/>
      <point x="288" y="421" type="line"/>
    </contour>
  </outline>
</glyph>
<glyph name="dollar" format="1">
  <advance width="535"/>
  <unicode hex="0024"/>
  <outline>
    <contour>
      <point x="167" y="692" type="curve"/>
      <point x="167" y="783" type="line"/>
      <point x="384" y="783" type="line"/>
      <point x="384" y="690" type="line"/>
      <point x="440" y="674"/>
      <point x="487" y="645"/>
      <point x="522" y="605" type="curve"/>
      <point x="400" y="467" type="line"/>
      <point x="354" y="512"/>
      <point x="305" y="535"/>
      <point x="272" y="535" type="curve" smooth="yes"/>
      <point x="246" y="535"/>
      <point x="233" y="525"/>
      <point x="233" y="508" type="curve" smooth="yes"/>
      <point x="233" y="491"/>
      <point x="250" y="477"/>
      <point x="309" y="457" type="curve" smooth="yes"/>
      <point x="443" y="410"/>
      <point x="523" y="353"/>
      <point x="523" y="224" type="curve" smooth="yes"/>
      <point x="523" y="102"/>
      <point x="465" y="36"/>
      <point x="384" y="9" type="curve"/>
      <point x="384" y="-84" type="line"/>
      <point x="167" y="-84" type="line"/>
      <point x="167" y="7" type="line"/>
      <point x="87" y="26"/>
      <point x="35" y="65"/>
      <point x="3" y="104" type="curve"/>
      <point x="128" y="243" type="line"/>
      <point x="175" y="196"/>
      <point x="236" y="165"/>
      <point x="274" y="165" type="curve" smooth="yes"/>
      <point x="297" y="165"/>
      <point x="311" y="178"/>
      <point x="311" y="194" type="curve" smooth="yes"/>
      <point x="311" y="215"/>
      <point x="297" y="225"/>
      <point x="227" y="250" type="curve" smooth="yes"/>
      <point x="88" y="300"/>
      <point x="23" y="376"/>
      <point x="23" y="489" type="curve" smooth="yes"/>
      <point x="23" y="599"/>
      <point x="83" y="664"/>
    </contour>
  </outline>
</glyph>
<glyph name="ampersand" format="1">
  <advance width="581"/>
  <unicode hex="0026"/>
  <outline>
    <contour>
      <point x="375" y="344" type="line"/>
      <point x="388" y="372"/>
      <point x="404" y="417"/>
      <point x="413" y="438" type="curve"/>
      <point x="567" y="374" type="line"/>
      <point x="548" y="323"/>
      <point x="510" y="234"/>
      <point x="478" y="185" type="curve"/>
      <point x="598" y="0" type="line"/>
      <point x="374" y="0" type="line"/>
      <point x="346" y="44" type="line"/>
      <point x="300" y="6"/>
      <point x="252" y="-11"/>
      <point x="193" y="-11" type="curve" smooth="yes"/>
      <point x="82" y="-11"/>
      <point x="7" y="51"/>
      <point x="7" y="181" type="curve" smooth="yes"/>
      <point x="7" y="261"/>
      <point x="45" y="328"/>
      <point x="109" y="386" type="curve"/>
      <point x="79" y="433"/>
      <point x="59" y="489"/>
      <point x="59" y="539" type="curve" smooth="yes"/>
      <point x="59" y="638"/>
      <point x="144" y="711"/>
      <point x="287" y="711" type="curve" smooth="yes"/>
      <point x="381" y="711"/>
      <point x="473" y="676"/>
      <point x="530" y="611" type="curve"/>
      <point x="404" y="473" type="line"/>
      <point x="379" y="498"/>
      <point x="334" y="537"/>
      <point x="298" y="537" type="curve" smooth="yes"/>
      <point x="283" y="537"/>
      <point x="275" y="528"/>
      <point x="275" y="516" type="curve" smooth="yes"/>
      <point x="275" y="502"/>
      <point x="283" y="487"/>
      <point x="304" y="454" type="curve" smooth="yes"/>
    </contour>
    <contour>
      <point x="232" y="146" type="curve" smooth="yes"/>
      <point x="243" y="146"/>
      <point x="253" y="149"/>
      <point x="264" y="165" type="curve"/>
      <point x="210" y="250" type="line"/>
      <point x="198" y="229"/>
      <point x="192" y="211"/>
      <point x="192" y="191" type="curve" smooth="yes"/>
      <point x="192" y="161"/>
      <point x="205" y="146"/>
    </contour>
  </outline>
</glyph>
<glyph name="quotesingle" format="1">
  <advance width="295"/>
  <unicode hex="0027"/>
  <outline>
    <contour>
      <point x="58" y="373" type="line"/>
      <point x="20" y="700" type="line"/>
      <point x="275" y="700" type="line"/>
      <point x="237" y="373" type="line"/>
    </contour>
  </outline>
</glyph>
<glyph name="parenleft" format="1">
  <advance width="346"/>
  <unicode hex="0028"/>
  <outline>
    <contour>
      <point x="200" y="-112" type="line"/>
      <point x="89" y="4"/>
      <point x="17" y="132"/>
      <point x="17" y="307" type="curve" smooth="yes"/>
      <point x="17" y="482"/>
      <point x="89" y="610"/>
      <point x="200" y="725" type="curve"/>
      <point x="343" y="656" type="line"/>
      <point x="277" y="537"/>
      <point x="252" y="435"/>
      <point x="252" y="307" type="curve" smooth="yes"/>
      <point x="252" y="178"/>
      <point x="277" y="77"/>
      <point x="343" y="-42" type="curve"/>
    </contour>
  </outline>
</glyph>
<glyph name="parenright" format="1">
  <advance width="346"/>
  <unicode hex="0029"/>
  <outline>
    <contour>
      <point x="146" y="-112" type="curve"/>
      <point x="3" y="-42" type="line"/>
      <point x="69" y="77"/>
      <point x="94" y="178"/>
      <point x="94" y="307" type="curve" smooth="yes"/>
      <point x="94" y="435"/>
      <point x="69" y="537"/>
      <point x="3" y="656" type="curve"/>
      <point x="146" y="725" type="line"/>
      <point x="257" y="610"/>
      <point x="329" y="482"/>
      <point x="329" y="307" type="curve" smooth="yes"/>
      <point x="329" y="132"/>
      <point x="257" y="4"/>
    </contour>
  </outline>
</glyph>
<glyph name="asterisk" format="1">
  <advance width="463"/>
  <unicode hex="002A"/>
  <outline>
    <contour>
      <point x="153" y="267" type="line"/>
      <point x="183" y="401" type="line"/>
      <point x="84" y="308" type="line"/>
      <point x="3" y="443" type="line"/>
      <point x="142" y="483" type="line"/>
      <point x="3" y="524" type="line"/>
      <point x="84" y="659" type="line"/>
      <point x="183" y="565" type="line"/>
      <point x="153" y="700" type="line"/>
      <point x="311" y="700" type="line"/>
      <point x="280" y="565" type="line"/>
      <point x="380" y="659" type="line"/>
      <point x="460" y="524" type="line"/>
      <point x="322" y="483" type="line"/>
      <point x="460" y="443" type="line"/>
      <point x="380" y="308" type="line"/>
      <point x="280" y="401" type="line"/>
      <point x="311" y="267" type="line"/>
    </contour>
  </outline>
</glyph>
<glyph name="plus" format="1">
  <advance width="521"/>
  <unicode hex="002B"/>
  <outline>
    <contour>
      <point x="157" y="94" type="line"/>
      <point x="157" y="245" type="line"/>
      <point x="19" y="245" type="line"/>
      <point x="19" y="443" type="line"/>
      <point x="157" y="443" type="line"/>
      <point x="157" y="594" type="line"/>
      <point x="365" y="594" type="line"/>
      <point x="365" y="443" type="line"/>
      <point x="503" y="443" type="line"/>
      <point x="503" y="245" type="line"/>
      <point x="365" y="245" type="line"/>
      <point x="365" y="94" type="line"/>
    </contour>
  </outline>
</glyph>
<glyph name="comma" format="1">
  <advance width="290"/>
  <unicode hex="002C"/>
  <outline>
    <contour>
      <point x="15" y="-115" type="line"/>
      <point x="32" y="231" type="line"/>
      <point x="279" y="231" type="line"/>
      <point x="161" y="-115" type="line"/>
    </contour>
  </outline>
</glyph>
<glyph name="hyphen" format="1">
  <advance width="388"/>
  <unicode hex="002D"/>
  <unicode hex="2010"/>
  <unicode hex="2011"/>
  <outline>
    <contour>
      <point x="19" y="249" type="line"/>
      <point x="19" y="457" type="line"/>
      <point x="369" y="457" type="line"/>
      <point x="369" y="249" type="line"/>
    </contour>
  </outline>
</glyph>
<glyph name="period" format="1">
  <advance width="290"/>
  <unicode hex="002E"/>
  <outline>
    <contour>
      <point x="145" y="-11" type="curve" smooth="yes"/>
      <point x="69" y="-11"/>
      <point x="19" y="41"/>
      <point x="19" y="118" type="curve" smooth="yes"/>
      <point x="19" y="196"/>
      <point x="69" y="245"/>
      <point x="145" y="245" type="curve" smooth="yes"/>
      <point x="221" y="245"/>
      <point x="272" y="196"/>
      <point x="272" y="118" type="curve" smooth="yes"/>
      <point x="272" y="41"/>
      <point x="221" y="-11"/>
    </contour>
  </outline>
</glyph>
<glyph name="slash" format="1">
  <advance width="439"/>
  <unicode hex="002F"/>
  <outline>
    <contour>
      <point x="-32" y="-90" type="line"/>
      <point x="251" y="790" type="line"/>
      <point x="471" y="790" type="line"/>
      <point x="188" y="-90" type="line"/>
    </contour>
  </outline>
</glyph>
<glyph name="zero" format="1">
  <advance width="567"/>
  <unicode hex="0030"/>
  <outline>
    <contour>
      <point x="284" y="-11" type="curve" smooth="yes"/>
      <point x="131" y="-11"/>
      <point x="17" y="79"/>
      <point x="17" y="350" type="curve" smooth="yes"/>
      <point x="17" y="621"/>
      <point x="131" y="711"/>
      <point x="284" y="711" type="curve" smooth="yes"/>
      <point x="436" y="711"/>
      <point x="550" y="621"/>
      <point x="550" y="350" type="curve" smooth="yes"/>
      <point x="550" y="79"/>
      <point x="436" y="-11"/>
    </contour>
    <contour>
      <point x="284" y="167" type="curve" smooth="yes"/>
      <point x="309" y="167"/>
      <point x="328" y="185"/>
      <point x="328" y="350" type="curve" smooth="yes"/>
      <point x="328" y="515"/>
      <point x="309" y="533"/>
      <point x="284" y="533" type="curve" smooth="yes"/>
      <point x="259" y="533"/>
      <point x="239" y="515"/>
      <point x="239" y="350" type="curve" smooth="yes"/>
      <point x="239" y="185"/>
      <point x="259" y="167"/>
    </contour>
  </outline>
</glyph>
<glyph name="one" format="1">
  <advance width="352"/>
  <unicode hex="0031"/>
  <outline>
    <contour>
      <point x="103" y="0" type="line"/>
      <point x="103" y="481" type="line"/>
      <point x="8" y="481" type="line"/>
      <point x="8" y="609" type="line"/>
      <point x="81" y="615"/>
      <point x="121" y="647"/>
      <point x="139" y="700" type="curve"/>
      <point x="324" y="700" type="line"/>
      <point x="324" y="0" type="line"/>
    </contour>
  </outline>
</glyph>
<glyph name="two" format="1">
  <advance width="530"/>
  <unicode hex="0032"/>
  <outline>
    <contour>
      <point x="15" y="0" type="line"/>
      <point x="15" y="231"/>
      <point x="77" y="322"/>
      <point x="248" y="423" type="curve" smooth="yes"/>
      <point x="291" y="448"/>
      <point x="306" y="470"/>
      <point x="306" y="494" type="curve" smooth="yes"/>
      <point x="306" y="519"/>
      <point x="290" y="531"/>
      <point x="266" y="531" type="curve" smooth="yes"/>
      <point x="234" y="531"/>
      <point x="195" y="508"/>
      <point x="151" y="450" type="curve"/>
      <point x="5" y="562" type="line"/>
      <point x="49" y="627"/>
      <point x="131" y="711"/>
      <point x="280" y="711" type="curve" smooth="yes"/>
      <point x="434" y="711"/>
      <point x="514" y="635"/>
      <point x="514" y="513" type="curve" smooth="yes"/>
      <point x="514" y="402"/>
      <point x="461" y="343"/>
      <point x="359" y="280" type="curve" smooth="yes"/>
      <point x="277" y="230"/>
      <point x="259" y="205"/>
      <point x="253" y="174" type="curve"/>
      <point x="512" y="174" type="line"/>
      <point x="512" y="0" type="line"/>
    </contour>
  </outline>
</glyph>
<glyph name="three" format="1">
  <advance width="528"/>
  <unicode hex="0033"/>
  <outline>
    <contour>
      <point x="269" y="-11" type="curve" smooth="yes"/>
      <point x="114" y="-11"/>
      <point x="45" y="58"/>
      <point x="0" y="141" type="curve"/>
      <point x="144" y="240" type="line"/>
      <point x="173" y="191"/>
      <point x="213" y="163"/>
      <point x="259" y="163" type="curve" smooth="yes"/>
      <point x="292" y="163"/>
      <point x="319" y="179"/>
      <point x="319" y="220" type="curve" smooth="yes"/>
      <point x="319" y="265"/>
      <point x="288" y="277"/>
      <point x="238" y="277" type="curve" smooth="yes"/>
      <point x="158" y="277" type="line"/>
      <point x="158" y="436" type="line"/>
      <point x="229" y="436" type="line" smooth="yes"/>
      <point x="276" y="436"/>
      <point x="308" y="448"/>
      <point x="308" y="493" type="curve" smooth="yes"/>
      <point x="308" y="521"/>
      <point x="284" y="537"/>
      <point x="259" y="537" type="curve" smooth="yes"/>
      <point x="213" y="537"/>
      <point x="188" y="511"/>
      <point x="158" y="472" type="curve"/>
      <point x="15" y="571" type="line"/>
      <point x="66" y="647"/>
      <point x="134" y="711"/>
      <point x="280" y="711" type="curve" smooth="yes"/>
      <point x="415" y="711"/>
      <point x="506" y="644"/>
      <point x="506" y="525" type="curve" smooth="yes"/>
      <point x="506" y="455"/>
      <point x="458" y="396"/>
      <point x="409" y="374" type="curve"/>
      <point x="450" y="359"/>
      <point x="518" y="317"/>
      <point x="518" y="205" type="curve" smooth="yes"/>
      <point x="518" y="67"/>
      <point x="419" y="-11"/>
    </contour>
  </outline>
</glyph>
<glyph name="four" format="1">
  <advance width="557"/>
  <unicode hex="0034"/>
  <outline>
    <contour>
      <point x="292" y="0" type="line"/>
      <point x="292" y="131" type="line"/>
      <point x="7" y="131" type="line"/>
      <point x="7" y="269" type="line"/>
      <point x="278" y="700" type="line"/>
      <point x="489" y="700" type="line"/>
      <point x="489" y="296" type="line"/>
      <point x="550" y="296" type="line"/>
      <point x="550" y="128" type="line"/>
      <point x="489" y="128" type="line"/>
      <point x="489" y="0" type="line"/>
    </contour>
    <contour>
      <point x="206" y="285" type="curve"/>
      <point x="218" y="287"/>
      <point x="239" y="287"/>
      <point x="268" y="287" type="curve" smooth="yes"/>
      <point x="302" y="287" type="line"/>
      <point x="302" y="372" type="line" smooth="yes"/>
      <point x="302" y="404"/>
      <point x="302" y="439"/>
      <point x="304" y="469" type="curve"/>
      <point x="293" y="439"/>
      <point x="281" y="414"/>
      <point x="265" y="384" type="curve" smooth="yes"/>
      <point x="249" y="355" type="line" smooth="yes"/>
      <point x="232" y="324"/>
      <point x="220" y="304"/>
    </contour>
  </outline>
</glyph>
<glyph name="five" format="1">
  <advance width="541"/>
  <unicode hex="0035"/>
  <outline>
    <contour>
      <point x="268" y="-11" type="curve" smooth="yes"/>
      <point x="113" y="-11"/>
      <point x="45" y="58"/>
      <point x="0" y="141" type="curve"/>
      <point x="144" y="240" type="line"/>
      <point x="173" y="191"/>
      <point x="210" y="162"/>
      <point x="254" y="162" type="curve" smooth="yes"/>
      <point x="296" y="162"/>
      <point x="321" y="190"/>
      <point x="321" y="243" type="curve" smooth="yes"/>
      <point x="321" y="298"/>
      <point x="296" y="320"/>
      <point x="262" y="320" type="curve" smooth="yes"/>
      <point x="230" y="320"/>
      <point x="208" y="294"/>
      <point x="196" y="276" type="curve"/>
      <point x="35" y="315" type="line"/>
      <point x="55" y="700" type="line"/>
      <point x="496" y="700" type="line"/>
      <point x="496" y="531" type="line"/>
      <point x="224" y="531" type="line"/>
      <point x="219" y="460" type="line"/>
      <point x="241" y="473"/>
      <point x="273" y="487"/>
      <point x="334" y="487" type="curve" smooth="yes"/>
      <point x="440" y="487"/>
      <point x="526" y="413"/>
      <point x="526" y="254" type="curve" smooth="yes"/>
      <point x="526" y="78"/>
      <point x="430" y="-11"/>
    </contour>
  </outline>
</glyph>
<glyph name="six" format="1">
  <advance width="543"/>
  <unicode hex="0036"/>
  <outline>
    <contour>
      <point x="271" y="-11" type="curve" smooth="yes"/>
      <point x="117" y="-11"/>
      <point x="16" y="77"/>
      <point x="16" y="258" type="curve" smooth="yes"/>
      <point x="16" y="489"/>
      <point x="134" y="656"/>
      <point x="402" y="709" type="curve"/>
      <point x="459" y="546" type="line"/>
      <point x="342" y="518"/>
      <point x="267" y="478"/>
      <point x="230" y="430" type="curve"/>
      <point x="260" y="447"/>
      <point x="295" y="453"/>
      <point x="331" y="453" type="curve" smooth="yes"/>
      <point x="447" y="453"/>
      <point x="533" y="390"/>
      <point x="533" y="237" type="curve" smooth="yes"/>
      <point x="533" y="75"/>
      <point x="430" y="-11"/>
    </contour>
    <contour>
      <point x="275" y="146" type="curve" smooth="yes"/>
      <point x="311" y="146"/>
      <point x="331" y="164"/>
      <point x="331" y="222" type="curve" smooth="yes"/>
      <point x="331" y="282"/>
      <point x="311" y="302"/>
      <point x="275" y="302" type="curve" smooth="yes"/>
      <point x="239" y="302"/>
      <point x="221" y="283"/>
      <point x="221" y="221" type="curve" smooth="yes"/>
      <point x="221" y="164"/>
      <point x="240" y="146"/>
    </contour>
  </outline>
</glyph>
<glyph name="seven" format="1">
  <advance width="525"/>
  <unicode hex="0037"/>
  <outline>
    <contour>
      <point x="109" y="0" type="line"/>
      <point x="109" y="203"/>
      <point x="143" y="371"/>
      <point x="257" y="522" type="curve"/>
      <point x="11" y="522" type="line"/>
      <point x="11" y="700" type="line"/>
      <point x="516" y="700" type="line"/>
      <point x="516" y="543" type="line"/>
      <point x="360" y="372"/>
      <point x="332" y="240"/>
      <point x="332" y="0" type="curve"/>
    </contour>
  </outline>
</glyph>
<glyph name="eight" format="1">
  <advance width="553"/>
  <unicode hex="0038"/>
  <outline>
    <contour>
      <point x="276" y="-11" type="curve" smooth="yes"/>
      <point x="113" y="-11"/>
      <point x="12" y="72"/>
      <point x="12" y="210" type="curve" smooth="yes"/>
      <point x="12" y="304"/>
      <point x="55" y="351"/>
      <point x="101" y="380" type="curve"/>
      <point x="60" y="407"/>
      <point x="30" y="451"/>
      <point x="30" y="523" type="curve" smooth="yes"/>
      <point x="30" y="638"/>
      <point x="122" y="711"/>
      <point x="277" y="711" type="curve" smooth="yes"/>
      <point x="437" y="711"/>
      <point x="523" y="636"/>
      <point x="523" y="523" type="curve" smooth="yes"/>
      <point x="523" y="452"/>
      <point x="494" y="409"/>
      <point x="452" y="381" type="curve"/>
      <point x="499" y="353"/>
      <point x="541" y="304"/>
      <point x="541" y="211" type="curve" smooth="yes"/>
      <point x="541" y="71"/>
      <point x="442" y="-11"/>
    </contour>
    <contour>
      <point x="277" y="437" type="curve" smooth="yes"/>
      <point x="311" y="437"/>
      <point x="326" y="460"/>
      <point x="326" y="500" type="curve" smooth="yes"/>
      <point x="326" y="540"/>
      <point x="312" y="565"/>
      <point x="277" y="565" type="curve" smooth="yes"/>
      <point x="241" y="565"/>
      <point x="227" y="540"/>
      <point x="227" y="500" type="curve" smooth="yes"/>
      <point x="227" y="460"/>
      <point x="242" y="437"/>
    </contour>
    <contour>
      <point x="277" y="145" type="curve" smooth="yes"/>
      <point x="315" y="145"/>
      <point x="334" y="171"/>
      <point x="334" y="222" type="curve" smooth="yes"/>
      <point x="334" y="273"/>
      <point x="315" y="298"/>
      <point x="277" y="298" type="curve" smooth="yes"/>
      <point x="238" y="298"/>
      <point x="219" y="273"/>
      <point x="219" y="222" type="curve" smooth="yes"/>
      <point x="219" y="171"/>
      <point x="238" y="145"/>
    </contour>
  </outline>
</glyph>
<glyph name="nine" format="1">
  <advance width="543"/>
  <unicode hex="0039"/>
  <outline>
    <contour>
      <point x="272" y="711" type="curve" smooth="yes"/>
      <point x="426" y="711"/>
      <point x="527" y="623"/>
      <point x="527" y="442" type="curve" smooth="yes"/>
      <point x="527" y="211"/>
      <point x="409" y="44"/>
      <point x="141" y="-9" type="curve"/>
      <point x="84" y="154" type="line"/>
      <point x="201" y="182"/>
      <point x="276" y="222"/>
      <point x="313" y="270" type="curve"/>
      <point x="283" y="253"/>
      <point x="248" y="247"/>
      <point x="212" y="247" type="curve" smooth="yes"/>
      <point x="96" y="247"/>
      <point x="10" y="310"/>
      <point x="10" y="463" type="curve" smooth="yes"/>
      <point x="10" y="625"/>
      <point x="113" y="711"/>
    </contour>
    <contour>
      <point x="268" y="554" type="curve" smooth="yes"/>
      <point x="232" y="554"/>
      <point x="212" y="536"/>
      <point x="212" y="478" type="curve" smooth="yes"/>
      <point x="212" y="418"/>
      <point x="232" y="398"/>
      <point x="268" y="398" type="curve" smooth="yes"/>
      <point x="304" y="398"/>
      <point x="322" y="417"/>
      <point x="322" y="479" type="curve" smooth="yes"/>
      <point x="322" y="536"/>
      <point x="303" y="554"/>
    </contour>
  </outline>
</glyph>
<glyph name="colon" format="1">
  <advance width="290"/>
  <unicode hex="003A"/>
  <outline>
    <contour>
      <point x="145" y="301" type="curve" smooth="yes"/>
      <point x="72" y="301"/>
      <point x="19" y="346"/>
      <point x="19" y="419" type="curve" smooth="yes"/>
      <point x="19" y="492"/>
      <point x="72" y="536"/>
      <point x="145" y="536" type="curve" smooth="yes"/>
      <point x="219" y="536"/>
      <point x="272" y="492"/>
      <point x="272" y="419" type="curve" smooth="yes"/>
      <point x="272" y="346"/>
      <point x="219" y="301"/>
    </contour>
    <contour>
      <point x="145" y="-11" type="curve" smooth="yes"/>
      <point x="72" y="-11"/>
      <point x="19" y="35"/>
      <point x="19" y="108" type="curve" smooth="yes"/>
      <point x="19" y="181"/>
      <point x="72" y="224"/>
      <point x="145" y="224" type="curve" smooth="yes"/>
      <point x="219" y="224"/>
      <point x="272" y="181"/>
      <point x="272" y="108" type="curve" smooth="yes"/>
      <point x="272" y="35"/>
      <point x="219" y="-11"/>
    </contour>
  </outline>
</glyph>
<glyph name="semicolon" format="1">
  <advance width="290"/>
  <unicode hex="003B"/>
  <outline>
    <contour>
      <point x="145" y="301" type="curve" smooth="yes"/>
      <point x="72" y="301"/>
      <point x="19" y="346"/>
      <point x="19" y="419" type="curve" smooth="yes"/>
      <point x="19" y="492"/>
      <point x="72" y="536"/>
      <point x="145" y="536" type="curve" smooth="yes"/>
      <point x="219" y="536"/>
      <point x="272" y="492"/>
      <point x="272" y="419" type="curve" smooth="yes"/>
      <point x="272" y="346"/>
      <point x="219" y="301"/>
    </contour>
    <contour>
      <point x="13" y="-115" type="line"/>
      <point x="28" y="216" type="line"/>
      <point x="271" y="216" type="line"/>
      <point x="159" y="-115" type="line"/>
    </contour>
  </outline>
</glyph>
<glyph name="less" format="1">
  <advance width="420"/>
  <unicode hex="003C"/>
  <outline>
    <contour>
      <point x="393" y="6" type="line"/>
      <point x="21" y="266" type="line"/>
      <point x="21" y="435" type="line"/>
      <point x="393" y="695" type="line"/>
      <point x="393" y="450" type="line"/>
      <point x="224" y="352" type="line"/>
      <point x="393" y="255" type="line"/>
    </contour>
  </outline>
</glyph>
<glyph name="equal" format="1">
  <advance width="524"/>
  <unicode hex="003D"/>
  <outline>
    <contour>
      <point x="31" y="376" type="line"/>
      <point x="31" y="571" type="line"/>
      <point x="494" y="571" type="line"/>
      <point x="494" y="376" type="line"/>
    </contour>
    <contour>
      <point x="31" y="117" type="line"/>
      <point x="31" y="312" type="line"/>
      <point x="494" y="312" type="line"/>
      <point x="494" y="117" type="line"/>
    </contour>
  </outline>
</glyph>
<glyph name="greater" format="1">
  <advance width="420"/>
  <unicode hex="003E"/>
  <outline>
    <contour>
      <point x="27" y="6" type="line"/>
      <point x="27" y="253" type="line"/>
      <point x="196" y="350" type="line"/>
      <point x="27" y="448" type="line"/>
      <point x="27" y="695" type="line"/>
      <point x="400" y="435" type="line"/>
      <point x="400" y="266" type="line"/>
    </contour>
  </outline>
</glyph>
<glyph name="question" format="1">
  <advance width="497"/>
  <unicode hex="003F"/>
  <outline>
    <contour>
      <point x="132" y="243" type="line"/>
      <point x="128" y="352"/>
      <point x="161" y="387"/>
      <point x="235" y="449" type="curve" smooth="yes"/>
      <point x="265" y="474"/>
      <point x="282" y="491"/>
      <point x="282" y="509" type="curve" smooth="yes"/>
      <point x="282" y="522"/>
      <point x="275" y="532"/>
      <point x="255" y="532" type="curve" smooth="yes"/>
      <point x="212" y="532"/>
      <point x="162" y="485"/>
      <point x="142" y="458" type="curve"/>
      <point x="-4" y="572" type="line"/>
      <point x="41" y="635"/>
      <point x="120" y="711"/>
      <point x="267" y="711" type="curve" smooth="yes"/>
      <point x="401" y="711"/>
      <point x="492" y="643"/>
      <point x="492" y="537" type="curve" smooth="yes"/>
      <point x="492" y="454"/>
      <point x="458" y="406"/>
      <point x="392" y="356" type="curve" smooth="yes"/>
      <point x="344" y="319"/>
      <point x="338" y="291"/>
      <point x="336" y="243" type="curve"/>
    </contour>
    <contour>
      <point x="233" y="-11" type="curve" smooth="yes"/>
      <point x="160" y="-11"/>
      <point x="108" y="32"/>
      <point x="108" y="104" type="curve" smooth="yes"/>
      <point x="108" y="176"/>
      <point x="160" y="217"/>
      <point x="233" y="217" type="curve" smooth="yes"/>
      <point x="305" y="217"/>
      <point x="357" y="176"/>
      <point x="357" y="104" type="curve" smooth="yes"/>
      <point x="357" y="32"/>
      <point x="305" y="-11"/>
    </contour>
  </outline>
</glyph>
<glyph name="at" format="1">
  <advance width="652"/>
  <unicode hex="0040"/>
  <outline>
    <contour>
      <point x="325" y="-11" type="curve" smooth="yes"/>
      <point x="131" y="-11"/>
      <point x="26" y="129"/>
      <point x="26" y="349" type="curve" smooth="yes"/>
      <point x="26" y="570"/>
      <point x="132" y="711"/>
      <point x="326" y="711" type="curve" smooth="yes"/>
      <point x="520" y="711"/>
      <point x="627" y="570"/>
      <point x="627" y="355" type="curve" smooth="yes"/>
      <point x="627" y="198"/>
      <point x="572" y="153"/>
      <point x="476" y="153" type="curve" smooth="yes"/>
      <point x="419" y="153"/>
      <point x="390" y="173"/>
      <point x="369" y="197" type="curve"/>
      <point x="342" y="174"/>
      <point x="308" y="154"/>
      <point x="261" y="154" type="curve" smooth="yes"/>
      <point x="199" y="154"/>
      <point x="163" y="197"/>
      <point x="163" y="281" type="curve" smooth="yes"/>
      <point x="163" y="367"/>
      <point x="206" y="408"/>
      <point x="272" y="408" type="curve" smooth="yes"/>
      <point x="301" y="408"/>
      <point x="320" y="401"/>
      <point x="337" y="392" type="curve"/>
      <point x="337" y="407" type="line" smooth="yes"/>
      <point x="337" y="435"/>
      <point x="330" y="444"/>
      <point x="305" y="444" type="curve" smooth="yes"/>
      <point x="275" y="444"/>
      <point x="249" y="438"/>
      <point x="215" y="421" type="curve"/>
      <point x="182" y="519" type="line"/>
      <point x="222" y="539"/>
      <point x="279" y="553"/>
      <point x="344" y="553" type="curve" smooth="yes"/>
      <point x="439" y="553"/>
      <point x="480" y="520"/>
      <point x="480" y="424" type="curve" smooth="yes"/>
      <point x="480" y="424"/>
      <point x="480" y="318"/>
      <point x="480" y="304" type="curve" smooth="yes"/>
      <point x="480" y="230"/>
      <point x="485" y="218"/>
      <point x="502" y="218" type="curve" smooth="yes"/>
      <point x="535" y="218"/>
      <point x="555" y="247"/>
      <point x="555" y="356" type="curve" smooth="yes"/>
      <point x="555" y="541"/>
      <point x="472" y="646"/>
      <point x="325" y="646" type="curve" smooth="yes"/>
      <point x="178" y="646"/>
      <point x="98" y="544"/>
      <point x="98" y="351" type="curve" smooth="yes"/>
      <point x="98" y="157"/>
      <point x="179" y="54"/>
      <point x="326" y="54" type="curve" smooth="yes"/>
      <point x="370" y="54"/>
      <point x="403" y="64"/>
      <point x="431" y="80" type="curve"/>
      <point x="460" y="23" type="line"/>
      <point x="424" y="3"/>
      <point x="382" y="-11"/>
    </contour>
    <contour>
      <point x="319" y="251" type="curve" smooth="yes"/>
      <point x="325" y="251"/>
      <point x="331" y="253"/>
      <point x="337" y="255" type="curve"/>
      <point x="337" y="321" type="line"/>
      <point x="331" y="323"/>
      <point x="325" y="325"/>
      <point x="319" y="325" type="curve" smooth="yes"/>
      <point x="304" y="325"/>
      <point x="298" y="317"/>
      <point x="298" y="286" type="curve" smooth="yes"/>
      <point x="298" y="259"/>
      <point x="304" y="251"/>
    </contour>
  </outline>
</glyph>
<glyph name="A" format="1">
  <advance width="600"/>
  <unicode hex="0041"/>
  <outline>
    <contour>
      <point x="2" y="0" type="line"/>
      <point x="165" y="700" type="line"/>
      <point x="436" y="700" type="line"/>
      <point x="598" y="0" type="line"/>
      <point x="374" y="0" type="line"/>
      <point x="358" y="93" type="line"/>
      <point x="238" y="93" type="line"/>
      <point x="222" y="0" type="line"/>
    </contour>
    <contour>
      <point x="269" y="255" type="line"/>
      <point x="327" y="255" type="line"/>
      <point x="323" y="284" type="line" smooth="yes"/>
      <point x="312" y="367"/>
      <point x="304" y="409"/>
      <point x="298" y="499" type="curve"/>
      <point x="293" y="409"/>
      <point x="282" y="349"/>
      <point x="273" y="284" type="curve" smooth="yes"/>
    </contour>
  </outline>
</glyph>
<glyph name="B" format="1">
  <advance width="561"/>
  <unicode hex="0042"/>
  <outline>
    <contour>
      <point x="27" y="0" type="line"/>
      <point x="27" y="700" type="line"/>
      <point x="314" y="700" type="line" smooth="yes"/>
      <point x="474" y="700"/>
      <point x="546" y="634"/>
      <point x="546" y="519" type="curve" smooth="yes"/>
      <point x="546" y="438"/>
      <point x="508" y="394"/>
      <point x="456" y="365" type="curve"/>
      <point x="512" y="337"/>
      <point x="553" y="295"/>
      <point x="553" y="207" type="curve" smooth="yes"/>
      <point x="553" y="73"/>
      <point x="477" y="0"/>
      <point x="318" y="0" type="curve" smooth="yes"/>
    </contour>
    <contour>
      <point x="253" y="426" type="line"/>
      <point x="280" y="426" type="line" smooth="yes"/>
      <point x="307" y="426"/>
      <point x="326" y="443"/>
      <point x="326" y="487" type="curve" smooth="yes"/>
      <point x="326" y="531"/>
      <point x="308" y="546"/>
      <point x="279" y="546" type="curve" smooth="yes"/>
      <point x="253" y="546" type="line"/>
    </contour>
    <contour>
      <point x="253" y="155" type="line"/>
      <point x="280" y="155" type="line" smooth="yes"/>
      <point x="309" y="155"/>
      <point x="326" y="172"/>
      <point x="326" y="219" type="curve" smooth="yes"/>
      <point x="326" y="267"/>
      <point x="309" y="286"/>
      <point x="279" y="286" type="curve" smooth="yes"/>
      <point x="253" y="286" type="line"/>
    </contour>
  </outline>
</glyph>
<glyph name="C" format="1">
  <advance width="553"/>
  <unicode hex="0043"/>
  <outline>
    <contour>
      <point x="295" y="-11" type="curve" smooth="yes"/>
      <point x="131" y="-11"/>
      <point x="18" y="79"/>
      <point x="18" y="350" type="curve" smooth="yes"/>
      <point x="18" y="620"/>
      <point x="129" y="711"/>
      <point x="296" y="711" type="curve" smooth="yes"/>
      <point x="458" y="711"/>
      <point x="524" y="617"/>
      <point x="542" y="449" type="curve"/>
      <point x="335" y="405" type="line"/>
      <point x="329" y="511"/>
      <point x="318" y="531"/>
      <point x="292" y="531" type="curve" smooth="yes"/>
      <point x="261" y="531"/>
      <point x="249" y="492"/>
      <point x="249" y="350" type="curve" smooth="yes"/>
      <point x="249" y="210"/>
      <point x="260" y="169"/>
      <point x="292" y="169" type="curve" smooth="yes"/>
      <point x="318" y="169"/>
      <point x="331" y="189"/>
      <point x="342" y="284" type="curve"/>
      <point x="547" y="231" type="line"/>
      <point x="522" y="92"/>
      <point x="464" y="-11"/>
    </contour>
  </outline>
</glyph>
<glyph name="D" format="1">
  <advance width="577"/>
  <unicode hex="0044"/>
  <outline>
    <contour>
      <point x="27" y="0" type="line"/>
      <point x="27" y="700" type="line"/>
      <point x="265" y="700" type="line" smooth="yes"/>
      <point x="458" y="700"/>
      <point x="560" y="599"/>
      <point x="560" y="350" type="curve" smooth="yes"/>
      <point x="560" y="101"/>
      <point x="458" y="0"/>
      <point x="265" y="0" type="curve" smooth="yes"/>
    </contour>
    <contour>
      <point x="254" y="179" type="line"/>
      <point x="267" y="179" type="line" smooth="yes"/>
      <point x="309" y="179"/>
      <point x="331" y="200"/>
      <point x="331" y="350" type="curve" smooth="yes"/>
      <point x="331" y="500"/>
      <point x="309" y="521"/>
      <point x="267" y="521" type="curve" smooth="yes"/>
      <point x="254" y="521" type="line"/>
    </contour>
  </outline>
</glyph>
<glyph name="E" format="1">
  <advance width="505"/>
  <unicode hex="0045"/>
  <outline>
    <contour>
      <point x="27" y="0" type="line"/>
      <point x="27" y="700" type="line"/>
      <point x="485" y="700" type="line"/>
      <point x="485" y="525" type="line"/>
      <point x="255" y="525" type="line"/>
      <point x="255" y="446" type="line"/>
      <point x="426" y="446" type="line"/>
      <point x="426" y="274" type="line"/>
      <point x="255" y="274" type="line"/>
      <point x="255" y="175" type="line"/>
      <point x="486" y="175" type="line"/>
      <point x="486" y="0" type="line"/>
    </contour>
  </outline>
</glyph>
<glyph name="F" format="1">
  <advance width="496"/>
  <unicode hex="0046"/>
  <outline>
    <contour>
      <point x="27" y="0" type="line"/>
      <point x="27" y="700" type="line"/>
      <point x="482" y="700" type="line"/>
      <point x="482" y="515" type="line"/>
      <point x="259" y="515" type="line"/>
      <point x="259" y="428" type="line"/>
      <point x="424" y="428" type="line"/>
      <point x="424" y="248" type="line"/>
      <point x="259" y="248" type="line"/>
      <point x="259" y="0" type="line"/>
    </contour>
  </outline>
</glyph>
<glyph name="G" format="1">
  <advance width="587"/>
  <unicode hex="0047"/>
  <outline>
    <contour>
      <point x="307" y="-11" type="curve" smooth="yes"/>
      <point x="132" y="-11"/>
      <point x="18" y="79"/>
      <point x="18" y="350" type="curve" smooth="yes"/>
      <point x="18" y="613"/>
      <point x="124" y="711"/>
      <point x="304" y="711" type="curve" smooth="yes"/>
      <point x="466" y="711"/>
      <point x="533" y="625"/>
      <point x="561" y="479" type="curve"/>
      <point x="354" y="430" type="line"/>
      <point x="343" y="513"/>
      <point x="327" y="533"/>
      <point x="299" y="533" type="curve" smooth="yes"/>
      <point x="268" y="533"/>
      <point x="249" y="510"/>
      <point x="249" y="350" type="curve" smooth="yes"/>
      <point x="249" y="184"/>
      <point x="268" y="160"/>
      <point x="303" y="160" type="curve" smooth="yes"/>
      <point x="330" y="160"/>
      <point x="348" y="178"/>
      <point x="348" y="233" type="curve" smooth="yes"/>
      <point x="348" y="247" type="line"/>
      <point x="292" y="247" type="line"/>
      <point x="292" y="387" type="line"/>
      <point x="570" y="387" type="line"/>
      <point x="570" y="302" type="line" smooth="yes"/>
      <point x="570" y="104"/>
      <point x="495" y="-11"/>
    </contour>
  </outline>
</glyph>
<glyph name="H" format="1">
  <advance width="595"/>
  <unicode hex="0048"/>
  <outline>
    <contour>
      <point x="27" y="0" type="line"/>
      <point x="27" y="700" type="line"/>
      <point x="261" y="700" type="line"/>
      <point x="261" y="460" type="line"/>
      <point x="334" y="460" type="line"/>
      <point x="334" y="700" type="line"/>
      <point x="568" y="700" type="line"/>
      <point x="568" y="0" type="line"/>
      <point x="334" y="0" type="line"/>
      <point x="334" y="266" type="line"/>
      <point x="261" y="266" type="line"/>
      <point x="261" y="0" type="line"/>
    </contour>
  </outline>
</glyph>
<glyph name="J" format="1">
  <advance width="559"/>
  <unicode hex="004A"/>
  <outline>
    <contour>
      <point x="269" y="-11" type="curve" smooth="yes"/>
      <point x="97" y="-11"/>
      <point x="31" y="74"/>
      <point x="15" y="249" type="curve"/>
      <point x="229" y="299" type="line"/>
      <point x="239" y="194"/>
      <point x="250" y="178"/>
      <point x="272" y="178" type="curve" smooth="yes"/>
      <point x="294" y="178"/>
      <point x="302" y="194"/>
      <point x="302" y="240" type="curve" smooth="yes"/>
      <point x="302" y="700" type="line"/>
      <point x="536" y="700" type="line"/>
      <point x="536" y="254" type="line" smooth="yes"/>
      <point x="536" y="73"/>
      <point x="453" y="-11"/>
    </contour>
  </outline>
</glyph>
<glyph name="K" format="1">
  <advance width="597"/>
  <unicode hex="004B"/>
  <outline>
    <contour>
      <point x="27" y="0" type="line"/>
      <point x="27" y="700" type="line"/>
      <point x="261" y="700" type="line"/>
      <point x="261" y="619" type="line" smooth="yes"/>
      <point x="261" y="573"/>
      <point x="260" y="521"/>
      <point x="258" y="484" type="curve"/>
      <point x="270" y="525"/>
      <point x="291" y="581"/>
      <point x="316" y="644" type="curve" smooth="yes"/>
      <point x="338" y="700" type="line"/>
      <point x="597" y="700" type="line"/>
      <point x="445" y="419" type="line"/>
      <point x="601" y="0" type="line"/>
      <point x="342" y="0" type="line"/>
      <point x="273" y="236" type="line"/>
      <point x="261" y="212" type="line"/>
      <point x="261" y="0" type="line"/>
    </contour>
  </outline>
</glyph>
<glyph name="L" format="1">
  <advance width="464"/>
  <unicode hex="004C"/>
  <outline>
    <contour>
      <point x="27" y="0" type="line"/>
      <point x="27" y="700" type="line"/>
      <point x="261" y="700" type="line"/>
      <point x="261" y="190" type="line"/>
      <point x="448" y="190" type="line"/>
      <point x="448" y="0" type="line"/>
    </contour>
  </outline>
</glyph>
<glyph name="M" format="1">
  <advance width="686"/>
  <unicode hex="004D"/>
  <outline>
    <contour>
      <point x="27" y="0" type="line"/>
      <point x="27" y="700" type="line"/>
      <point x="272" y="700" type="line"/>
      <point x="304" y="579" type="line" smooth="yes"/>
      <point x="322" y="510"/>
      <point x="339" y="446"/>
      <point x="344" y="399" type="curve"/>
      <point x="349" y="446"/>
      <point x="365" y="511"/>
      <point x="383" y="579" type="curve" smooth="yes"/>
      <point x="415" y="700" type="line"/>
      <point x="659" y="700" type="line"/>
      <point x="659" y="0" type="line"/>
      <point x="449" y="0" type="line"/>
      <point x="449" y="200" type="line" smooth="yes"/>
      <point x="449" y="246"/>
      <point x="450" y="301"/>
      <point x="452" y="344" type="curve"/>
      <point x="442" y="286"/>
      <point x="424" y="212"/>
      <point x="407" y="147" type="curve" smooth="yes"/>
      <point x="366" y="-6" type="line"/>
      <point x="317" y="-6" type="line"/>
      <point x="276" y="147" type="line" smooth="yes"/>
      <point x="259" y="212"/>
      <point x="242" y="283"/>
      <point x="232" y="344" type="curve"/>
      <point x="233" y="302"/>
      <point x="235" y="245"/>
      <point x="235" y="200" type="curve" smooth="yes"/>
      <point x="235" y="0" type="line"/>
    </contour>
  </outline>
</glyph>
<glyph name="N" format="1">
  <advance width="589"/>
  <unicode hex="004E"/>
  <outline>
    <contour>
      <point x="27" y="0" type="line"/>
      <point x="27" y="700" type="line"/>
      <point x="235" y="700" type="line"/>
      <point x="283" y="600" type="line" smooth="yes"/>
      <point x="310" y="544"/>
      <point x="341" y="461"/>
      <point x="353" y="417" type="curve"/>
      <point x="351" y="448"/>
      <point x="348" y="511"/>
      <point x="348" y="550" type="curve" smooth="yes"/>
      <point x="348" y="700" type="line"/>
      <point x="562" y="700" type="line"/>
      <point x="562" y="0" type="line"/>
      <point x="364" y="0" type="line"/>
      <point x="305" y="132" type="line" smooth="yes"/>
      <point x="279" y="191"/>
      <point x="250" y="263"/>
      <point x="237" y="307" type="curve"/>
      <point x="239" y="275"/>
      <point x="241" y="221"/>
      <point x="241" y="182" type="curve" smooth="yes"/>
      <point x="241" y="0" type="line"/>
    </contour>
  </outline>
</glyph>
<glyph name="O" format="1">
  <advance width="591"/>
  <unicode hex="004F"/>
  <outline>
    <contour>
      <point x="296" y="-11" type="curve" smooth="yes"/>
      <point x="132" y="-11"/>
      <point x="18" y="79"/>
      <point x="18" y="350" type="curve" smooth="yes"/>
      <point x="18" y="621"/>
      <point x="132" y="711"/>
      <point x="296" y="711" type="curve" smooth="yes"/>
      <point x="460" y="711"/>
      <point x="573" y="621"/>
      <point x="573" y="350" type="curve" smooth="yes"/>
      <point x="573" y="79"/>
      <point x="460" y="-11"/>
    </contour>
    <contour>
      <point x="296" y="169" type="curve" smooth="yes"/>
      <point x="322" y="169"/>
      <point x="342" y="188"/>
      <point x="342" y="350" type="curve" smooth="yes"/>
      <point x="342" y="512"/>
      <point x="322" y="531"/>
      <point x="296" y="531" type="curve" smooth="yes"/>
      <point x="270" y="531"/>
      <point x="249" y="512"/>
      <point x="249" y="350" type="curve" smooth="yes"/>
      <point x="249" y="188"/>
      <point x="270" y="169"/>
    </contour>
  </outline>
</glyph>
<glyph name="P" format="1">
  <advance width="547"/>
  <unicode hex="0050"/>
  <outline>
    <contour>
      <point x="27" y="0" type="line"/>
      <point x="27" y="700" type="line"/>
      <point x="278" y="700" type="line" smooth="yes"/>
      <point x="441" y="700"/>
      <point x="538" y="633"/>
      <point x="538" y="456" type="curve" smooth="yes"/>
      <point x="538" y="279"/>
      <point x="441" y="213"/>
      <point x="278" y="213" type="curve" smooth="yes"/>
      <point x="257" y="213" type="line"/>
      <point x="257" y="0" type="line"/>
    </contour>
    <contour>
      <point x="252" y="378" type="line"/>
      <point x="267" y="378" type="line" smooth="yes"/>
      <point x="303" y="378"/>
      <point x="319" y="395"/>
      <point x="319" y="454" type="curve" smooth="yes"/>
      <point x="319" y="514"/>
      <point x="303" y="530"/>
      <point x="267" y="530" type="curve" smooth="yes"/>
      <point x="252" y="530" type="line"/>
    </contour>
  </outline>
</glyph>
<glyph name="Q" format="1">
  <advance width="591"/>
  <unicode hex="0051"/>
  <outline>
    <contour>
      <point x="419" y="-66" type="line"/>
      <point x="365" y="-2" type="line"/>
      <point x="343" y="-8"/>
      <point x="320" y="-10"/>
      <point x="296" y="-10" type="curve" smooth="yes"/>
      <point x="136" y="-10"/>
      <point x="18" y="79"/>
      <point x="18" y="350" type="curve" smooth="yes"/>
      <point x="18" y="621"/>
      <point x="136" y="711"/>
      <point x="296" y="711" type="curve" smooth="yes"/>
      <point x="455" y="711"/>
      <point x="574" y="621"/>
      <point x="574" y="350" type="curve" smooth="yes"/>
      <point x="574" y="249"/>
      <point x="557" y="173"/>
      <point x="528" y="118" type="curve"/>
      <point x="580" y="60" type="line"/>
    </contour>
    <contour>
      <point x="296" y="169" type="curve" smooth="yes"/>
      <point x="319" y="169"/>
      <point x="342" y="188"/>
      <point x="342" y="350" type="curve" smooth="yes"/>
      <point x="342" y="512"/>
      <point x="319" y="531"/>
      <point x="296" y="531" type="curve" smooth="yes"/>
      <point x="272" y="531"/>
      <point x="249" y="512"/>
      <point x="249" y="350" type="curve" smooth="yes"/>
      <point x="249" y="188"/>
      <point x="272" y="169"/>
    </contour>
  </outline>
</glyph>
<glyph name="R" format="1">
  <advance width="562"/>
  <unicode hex="0052"/>
  <outline>
    <contour>
      <point x="27" y="0" type="line"/>
      <point x="27" y="700" type="line"/>
      <point x="299" y="700" type="line" smooth="yes"/>
      <point x="440" y="700"/>
      <point x="543" y="646"/>
      <point x="543" y="479" type="curve" smooth="yes"/>
      <point x="543" y="390"/>
      <point x="506" y="338"/>
      <point x="462" y="301" type="curve"/>
      <point x="562" y="0" type="line"/>
      <point x="322" y="0" type="line"/>
      <point x="255" y="238" type="line"/>
      <point x="253" y="238" type="line"/>
      <point x="253" y="0" type="line"/>
    </contour>
    <contour>
      <point x="252" y="395" type="line"/>
      <point x="267" y="395" type="line" smooth="yes"/>
      <point x="304" y="395"/>
      <point x="320" y="411"/>
      <point x="320" y="465" type="curve" smooth="yes"/>
      <point x="320" y="520"/>
      <point x="304" y="536"/>
      <point x="267" y="536" type="curve" smooth="yes"/>
      <point x="252" y="536" type="line"/>
    </contour>
  </outline>
</glyph>
<glyph name="S" format="1">
  <advance width="541"/>
  <unicode hex="0053"/>
  <outline>
    <contour>
      <point x="3" y="104" type="curve"/>
      <point x="128" y="243" type="line"/>
      <point x="175" y="196"/>
      <point x="236" y="165"/>
      <point x="274" y="165" type="curve" smooth="yes"/>
      <point x="297" y="165"/>
      <point x="311" y="178"/>
      <point x="311" y="194" type="curve" smooth="yes"/>
      <point x="311" y="215"/>
      <point x="297" y="225"/>
      <point x="227" y="250" type="curve" smooth="yes"/>
      <point x="88" y="300"/>
      <point x="23" y="376"/>
      <point x="23" y="489" type="curve" smooth="yes"/>
      <point x="23" y="638"/>
      <point x="134" y="711"/>
      <point x="265" y="711" type="curve" smooth="yes"/>
      <point x="376" y="711"/>
      <point x="465" y="671"/>
      <point x="522" y="605" type="curve"/>
      <point x="400" y="467" type="line"/>
      <point x="354" y="512"/>
      <point x="305" y="535"/>
      <point x="272" y="535" type="curve" smooth="yes"/>
      <point x="246" y="535"/>
      <point x="233" y="525"/>
      <point x="233" y="508" type="curve" smooth="yes"/>
      <point x="233" y="491"/>
      <point x="250" y="477"/>
      <point x="309" y="457" type="curve" smooth="yes"/>
      <point x="443" y="410"/>
      <point x="523" y="353"/>
      <point x="523" y="224" type="curve" smooth="yes"/>
      <point x="523" y="55"/>
      <point x="412" y="-11"/>
      <point x="281" y="-11" type="curve" smooth="yes"/>
      <point x="134" y="-11"/>
      <point x="48" y="49"/>
    </contour>
  </outline>
</glyph>
<glyph name="T" format="1">
  <advance width="520"/>
  <unicode hex="0054"/>
  <outline>
    <contour>
      <point x="143" y="0" type="line"/>
      <point x="143" y="510" type="line"/>
      <point x="14" y="510" type="line"/>
      <point x="14" y="700" type="line"/>
      <point x="506" y="700" type="line"/>
      <point x="506" y="510" type="line"/>
      <point x="377" y="510" type="line"/>
      <point x="377" y="0" type="line"/>
    </contour>
  </outline>
</glyph>
<glyph name="U" format="1">
  <advance width="582"/>
  <unicode hex="0055"/>
  <outline>
    <contour>
      <point x="291" y="-11" type="curve" smooth="yes"/>
      <point x="107" y="-11"/>
      <point x="24" y="71"/>
      <point x="24" y="255" type="curve" smooth="yes"/>
      <point x="24" y="700" type="line"/>
      <point x="258" y="700" type="line"/>
      <point x="258" y="234" type="line" smooth="yes"/>
      <point x="258" y="197"/>
      <point x="267" y="178"/>
      <point x="294" y="178" type="curve" smooth="yes"/>
      <point x="320" y="178"/>
      <point x="330" y="197"/>
      <point x="330" y="234" type="curve" smooth="yes"/>
      <point x="330" y="700" type="line"/>
      <point x="558" y="700" type="line"/>
      <point x="558" y="253" type="line" smooth="yes"/>
      <point x="558" y="69"/>
      <point x="475" y="-11"/>
    </contour>
  </outline>
</glyph>
<glyph name="V" format="1">
  <advance width="587"/>
  <unicode hex="0056"/>
  <outline>
    <contour>
      <point x="165" y="0" type="line"/>
      <point x="2" y="700" type="line"/>
      <point x="236" y="700" type="line"/>
      <point x="264" y="527" type="line" smooth="yes"/>
      <point x="281" y="425"/>
      <point x="291" y="338"/>
      <point x="296" y="241" type="curve"/>
      <point x="301" y="338"/>
      <point x="311" y="425"/>
      <point x="328" y="527" type="curve" smooth="yes"/>
      <point x="356" y="700" type="line"/>
      <point x="585" y="700" type="line"/>
      <point x="423" y="0" type="line"/>
    </contour>
  </outline>
</glyph>
<glyph name="W" format="1">
  <advance width="782"/>
  <unicode hex="0057"/>
  <outline>
    <contour>
      <point x="119" y="0" type="line"/>
      <point x="4" y="700" type="line"/>
      <point x="233" y="700" type="line"/>
      <point x="245" y="562" type="line" smooth="yes"/>
      <point x="252" y="481"/>
      <point x="258" y="390"/>
      <point x="259" y="315" type="curve"/>
      <point x="264" y="390"/>
      <point x="273" y="481"/>
      <point x="281" y="562" type="curve" smooth="yes"/>
      <point x="295" y="700" type="line"/>
      <point x="494" y="700" type="line"/>
      <point x="509" y="562" type="line" smooth="yes"/>
      <point x="518" y="481"/>
      <point x="526" y="390"/>
      <point x="530" y="315" type="curve"/>
      <point x="532" y="390"/>
      <point x="539" y="481"/>
      <point x="545" y="562" type="curve" smooth="yes"/>
      <point x="556" y="700" type="line"/>
      <point x="779" y="700" type="line"/>
      <point x="664" y="0" type="line"/>
      <point x="430" y="0" type="line"/>
      <point x="416" y="117" type="line" smooth="yes"/>
      <point x="405" y="208"/>
      <point x="396" y="295"/>
      <point x="394" y="359" type="curve"/>
      <point x="391" y="295"/>
      <point x="384" y="208"/>
      <point x="372" y="117" type="curve" smooth="yes"/>
      <point x="357" y="0" type="line"/>
    </contour>
  </outline>
</glyph>
<glyph name="X" format="1">
  <advance width="583"/>
  <unicode hex="0058"/>
  <outline>
    <contour>
      <point x="-2" y="0" type="line"/>
      <point x="150" y="356" type="line"/>
      <point x="3" y="700" type="line"/>
      <point x="246" y="700" type="line"/>
      <point x="265" y="645" type="line" smooth="yes"/>
      <point x="282" y="596"/>
      <point x="291" y="550"/>
      <point x="295" y="515" type="curve"/>
      <point x="300" y="550"/>
      <point x="309" y="597"/>
      <point x="326" y="645" type="curve" smooth="yes"/>
      <point x="345" y="700" type="line"/>
      <point x="580" y="700" type="line"/>
      <point x="433" y="358" type="line"/>
      <point x="585" y="0" type="line"/>
      <point x="342" y="0" type="line"/>
      <point x="320" y="69" type="line" smooth="yes"/>
      <point x="304" y="119"/>
      <point x="292" y="166"/>
      <point x="288" y="200" type="curve"/>
      <point x="283" y="166"/>
      <point x="272" y="118"/>
      <point x="256" y="69" type="curve" smooth="yes"/>
      <point x="234" y="0" type="line"/>
    </contour>
  </outline>
</glyph>
<glyph name="Y" format="1">
  <advance width="581"/>
  <unicode hex="0059"/>
  <outline>
    <contour>
      <point x="174" y="0" type="line"/>
      <point x="174" y="254" type="line"/>
      <point x="-4" y="700" type="line"/>
      <point x="241" y="700" type="line"/>
      <point x="262" y="619" type="line" smooth="yes"/>
      <point x="280" y="549"/>
      <point x="292" y="488"/>
      <point x="295" y="436" type="curve"/>
      <point x="299" y="488"/>
      <point x="310" y="550"/>
      <point x="328" y="619" type="curve" smooth="yes"/>
      <point x="349" y="700" type="line"/>
      <point x="586" y="700" type="line"/>
      <point x="408" y="254" type="line"/>
      <point x="408" y="0" type="line"/>
    </contour>
  </outline>
</glyph>
<glyph name="Z" format="1">
  <advance width="541"/>
  <unicode hex="005A"/>
  <outline>
    <contour>
      <point x="14" y="0" type="line"/>
      <point x="14" y="168" type="line"/>
      <point x="177" y="412" type="line" smooth="yes"/>
      <point x="206" y="456"/>
      <point x="234" y="500"/>
      <point x="254" y="523" type="curve"/>
      <point x="233" y="521"/>
      <point x="197" y="520"/>
      <point x="161" y="520" type="curve" smooth="yes"/>
      <point x="27" y="520" type="line"/>
      <point x="27" y="700" type="line"/>
      <point x="524" y="700" type="line"/>
      <point x="524" y="532" type="line"/>
      <point x="361" y="288" type="line" smooth="yes"/>
      <point x="326" y="236"/>
      <point x="303" y="200"/>
      <point x="284" y="177" type="curve"/>
      <point x="305" y="179"/>
      <point x="340" y="180"/>
      <point x="376" y="180" type="curve" smooth="yes"/>
      <point x="524" y="180" type="line"/>
      <point x="524" y="0" type="line"/>
    </contour>
  </outline>
</glyph>
<glyph name="bracketleft" format="1">
  <advance width="364"/>
  <unicode hex="005B"/>
  <outline>
    <contour>
      <point x="28" y="-101" type="line"/>
      <point x="28" y="700" type="line"/>
      <point x="346" y="700" type="line"/>
      <point x="346" y="553" type="line"/>
      <point x="230" y="553" type="line"/>
      <point x="230" y="46" type="line"/>
      <point x="346" y="46" type="line"/>
      <point x="346" y="-101" type="line"/>
    </contour>
  </outline>
</glyph>
<glyph name="backslash" format="1">
  <advance width="439"/>
  <unicode hex="005C"/>
  <outline>
    <contour>
      <point x="251" y="-90" type="line"/>
      <point x="-32" y="790" type="line"/>
      <point x="188" y="790" type="line"/>
      <point x="471" y="-90" type="line"/>
    </contour>
  </outline>
</glyph>
<glyph name="bracketright" format="1">
  <advance width="364"/>
  <unicode hex="005D"/>
  <outline>
    <contour>
      <point x="18" y="-101" type="line"/>
      <point x="18" y="46" type="line"/>
      <point x="135" y="46" type="line"/>
      <point x="135" y="553" type="line"/>
      <point x="18" y="553" type="line"/>
      <point x="18" y="700" type="line"/>
      <point x="337" y="700" type="line"/>
      <point x="337" y="-101" type="line"/>
    </contour>
  </outline>
</glyph>
<glyph name="asciicircum" format="1">
  <advance width="526"/>
  <unicode hex="005E"/>
  <outline>
    <contour>
      <point x="5" y="360" type="line"/>
      <point x="160" y="700" type="line"/>
      <point x="366" y="700" type="line"/>
      <point x="522" y="360" type="line"/>
      <point x="311" y="360" type="line"/>
      <point x="262" y="517" type="line"/>
      <point x="213" y="360" type="line"/>
    </contour>
  </outline>
</glyph>
<glyph name="underscore" format="1">
  <advance width="425"/>
  <unicode hex="005F"/>
  <outline>
    <contour>
      <point x="-1" y="-189" type="line"/>
      <point x="-1" y="-43" type="line"/>
      <point x="426" y="-43" type="line"/>
      <point x="426" y="-189" type="line"/>
    </contour>
  </outline>
</glyph>
<glyph name="grave" format="1">
  <advance width="415"/>
  <unicode hex="0060"/>
  <outline>
    <contour>
      <point x="172" y="557" type="line"/>
      <point x="-7" y="745" type="line"/>
      <point x="259" y="745" type="line"/>
      <point x="335" y="557" type="line"/>
    </contour>
  </outline>
</glyph>
<glyph name="a" format="1">
  <advance width="477"/>
  <unicode hex="0061"/>
  <outline>
    <contour>
      <point x="147" y="-11" type="curve" smooth="yes"/>
      <point x="61" y="-11"/>
      <point x="9" y="47"/>
      <point x="9" y="163" type="curve" smooth="yes"/>
      <point x="9" y="281"/>
      <point x="72" y="336"/>
      <point x="162" y="336" type="curve" smooth="yes"/>
      <point x="201" y="336"/>
      <point x="228" y="330"/>
      <point x="254" y="319" type="curve"/>
      <point x="254" y="335" type="line" smooth="yes"/>
      <point x="254" y="374"/>
      <point x="242" y="386"/>
      <point x="207" y="386" type="curve" smooth="yes"/>
      <point x="164" y="386"/>
      <point x="127" y="377"/>
      <point x="80" y="355" type="curve"/>
      <point x="36" y="488" type="line"/>
      <point x="94" y="518"/>
      <point x="174" y="536"/>
      <point x="260" y="536" type="curve" smooth="yes"/>
      <point x="395" y="536"/>
      <point x="457" y="490"/>
      <point x="457" y="359" type="curve" smooth="yes"/>
      <point x="457" y="0" type="line"/>
      <point x="254" y="0" type="line"/>
      <point x="254" y="30" type="line"/>
      <point x="220" y="5"/>
      <point x="186" y="-11"/>
    </contour>
    <contour>
      <point x="229" y="120" type="curve" smooth="yes"/>
      <point x="237" y="120"/>
      <point x="246" y="123"/>
      <point x="254" y="126" type="curve"/>
      <point x="254" y="216" type="line"/>
      <point x="246" y="219"/>
      <point x="237" y="222"/>
      <point x="229" y="222" type="curve" smooth="yes"/>
      <point x="210" y="222"/>
      <point x="201" y="211"/>
      <point x="201" y="169" type="curve" smooth="yes"/>
      <point x="201" y="132"/>
      <point x="210" y="120"/>
    </contour>
  </outline>
</glyph>
<glyph name="c" format="1">
  <advance width="465"/>
  <unicode hex="0063"/>
  <outline>
    <contour>
      <point x="247" y="-11" type="curve" smooth="yes"/>
      <point x="111" y="-11"/>
      <point x="13" y="60"/>
      <point x="13" y="262" type="curve" smooth="yes"/>
      <point x="13" y="456"/>
      <point x="103" y="536"/>
      <point x="246" y="536" type="curve" smooth="yes"/>
      <point x="377" y="536"/>
      <point x="436" y="460"/>
      <point x="457" y="337" type="curve"/>
      <point x="276" y="298" type="line"/>
      <point x="273" y="367"/>
      <point x="264" y="383"/>
      <point x="248" y="383" type="curve" smooth="yes"/>
      <point x="229" y="383"/>
      <point x="220" y="357"/>
      <point x="220" y="262" type="curve" smooth="yes"/>
      <point x="220" y="167"/>
      <point x="228" y="142"/>
      <point x="250" y="142" type="curve" smooth="yes"/>
      <point x="264" y="142"/>
      <point x="276" y="157"/>
      <point x="280" y="225" type="curve"/>
      <point x="456" y="179" type="line"/>
      <point x="433" y="55"/>
      <point x="361" y="-11"/>
    </contour>
  </outline>
</glyph>
<glyph name="e" format="1">
  <advance width="476"/>
  <unicode hex="0065"/>
  <outline>
    <contour>
      <point x="204" y="210" type="line"/>
      <point x="210" y="143"/>
      <point x="227" y="132"/>
      <point x="248" y="132" type="curve" smooth="yes"/>
      <point x="274" y="132"/>
      <point x="286" y="157"/>
      <point x="291" y="183" type="curve"/>
      <point x="456" y="139" type="line"/>
      <point x="430" y="57"/>
      <point x="368" y="-11"/>
      <point x="247" y="-11" type="curve" smooth="yes"/>
      <point x="91" y="-11"/>
      <point x="13" y="85"/>
      <point x="13" y="260" type="curve" smooth="yes"/>
      <point x="13" y="460"/>
      <point x="111" y="536"/>
      <point x="247" y="536" type="curve" smooth="yes"/>
      <point x="373" y="536"/>
      <point x="464" y="466"/>
      <point x="464" y="235" type="curve" smooth="yes"/>
      <point x="464" y="231"/>
      <point x="464" y="213"/>
      <point x="464" y="210" type="curve"/>
    </contour>
    <contour>
      <point x="204" y="321" type="curve"/>
      <point x="279" y="321" type="line"/>
      <point x="276" y="384"/>
      <point x="266" y="399"/>
      <point x="242" y="399" type="curve" smooth="yes"/>
      <point x="227" y="399"/>
      <point x="209" y="394"/>
    </contour>
  </outline>
</glyph>
<glyph name="f" format="1">
  <advance width="326"/>
  <unicode hex="0066"/>
  <outline>
    <contour>
      <point x="50" y="0" type="line"/>
      <point x="50" y="373" type="line"/>
      <point x="5" y="373" type="line"/>
      <point x="5" y="525" type="line"/>
      <point x="50" y="525" type="line"/>
      <point x="50" y="568" type="line" smooth="yes"/>
      <point x="50" y="685"/>
      <point x="112" y="731"/>
      <point x="215" y="731" type="curve" smooth="yes"/>
      <point x="269" y="731"/>
      <point x="304" y="725"/>
      <point x="328" y="716" type="curve"/>
      <point x="328" y="575" type="line"/>
      <point x="312" y="581"/>
      <point x="300" y="582"/>
      <point x="285" y="582" type="curve" smooth="yes"/>
      <point x="264" y="582"/>
      <point x="255" y="571"/>
      <point x="255" y="544" type="curve" smooth="yes"/>
      <point x="255" y="525" type="line"/>
      <point x="320" y="525" type="line"/>
      <point x="320" y="373" type="line"/>
      <point x="258" y="373" type="line"/>
      <point x="258" y="0" type="line"/>
    </contour>
  </outline>
</glyph>
<glyph name="g" format="1">
  <advance width="508"/>
  <unicode hex="0067"/>
  <outline>
    <contour>
      <point x="166" y="-193" type="curve"/>
      <point x="106" y="-68" type="line"/>
      <point x="247" y="-49"/>
      <point x="273" y="-20"/>
      <point x="273" y="31" type="curve" smooth="yes"/>
      <point x="273" y="38" type="line"/>
      <point x="243" y="9"/>
      <point x="216" y="-6"/>
      <point x="170" y="-6" type="curve" smooth="yes"/>
      <point x="84" y="-6"/>
      <point x="14" y="64"/>
      <point x="14" y="263" type="curve" smooth="yes"/>
      <point x="14" y="466"/>
      <point x="84" y="536"/>
      <point x="174" y="536" type="curve" smooth="yes"/>
      <point x="218" y="536"/>
      <point x="243" y="521"/>
      <point x="271" y="496" type="curve"/>
      <point x="271" y="525" type="line"/>
      <point x="486" y="525" type="line"/>
      <point x="486" y="82" type="line" smooth="yes"/>
      <point x="486" y="-103"/>
      <point x="401" y="-166"/>
    </contour>
    <contour>
      <point x="255" y="150" type="curve" smooth="yes"/>
      <point x="262" y="150"/>
      <point x="265" y="151"/>
      <point x="271" y="154" type="curve"/>
      <point x="271" y="376" type="line"/>
      <point x="265" y="379"/>
      <point x="262" y="379"/>
      <point x="255" y="379" type="curve" smooth="yes"/>
      <point x="234" y="379"/>
      <point x="220" y="365"/>
      <point x="220" y="264" type="curve" smooth="yes"/>
      <point x="220" y="164"/>
      <point x="234" y="150"/>
    </contour>
  </outline>
</glyph>
<glyph name="i" format="1">
  <advance width="261"/>
  <unicode hex="0069"/>
  <outline>
    <contour>
      <point x="131" y="554" type="curve" smooth="yes"/>
      <point x="60" y="554"/>
      <point x="13" y="586"/>
      <point x="13" y="645" type="curve" smooth="yes"/>
      <point x="13" y="701"/>
      <point x="60" y="735"/>
      <point x="131" y="735" type="curve" smooth="yes"/>
      <point x="201" y="735"/>
      <point x="248" y="701"/>
      <point x="248" y="645" type="curve" smooth="yes"/>
      <point x="248" y="586"/>
      <point x="201" y="554"/>
    </contour>
    <contour>
      <point x="23" y="0" type="line"/>
      <point x="23" y="525" type="line"/>
      <point x="238" y="525" type="line"/>
      <point x="238" y="0" type="line"/>
    </contour>
  </outline>
</glyph>
<glyph name="j" format="1">
  <advance width="261"/>
  <unicode hex="006A"/>
  <outline>
    <contour>
      <point x="131" y="554" type="curve" smooth="yes"/>
      <point x="60" y="554"/>
      <point x="13" y="586"/>
      <point x="13" y="645" type="curve" smooth="yes"/>
      <point x="13" y="701"/>
      <point x="60" y="735"/>
      <point x="131" y="735" type="curve" smooth="yes"/>
      <point x="201" y="735"/>
      <point x="248" y="701"/>
      <point x="248" y="645" type="curve" smooth="yes"/>
      <point x="248" y="586"/>
      <point x="201" y="554"/>
    </contour>
    <contour>
      <point x="-15" y="-193" type="curve"/>
      <point x="-66" y="-54" type="line"/>
      <point x="8" y="-43"/>
      <point x="23" y="-24"/>
      <point x="23" y="34" type="curve" smooth="yes"/>
      <point x="23" y="525" type="line"/>
      <point x="238" y="525" type="line"/>
      <point x="238" y="39" type="line" smooth="yes"/>
      <point x="238" y="-130"/>
      <point x="157" y="-176"/>
    </contour>
  </outline>
</glyph>
<glyph name="k" format="1">
  <advance width="511"/>
  <unicode hex="006B"/>
  <outline>
    <contour>
      <point x="23" y="0" type="line"/>
      <point x="23" y="665" type="line"/>
      <point x="238" y="732" type="line"/>
      <point x="238" y="454" type="line" smooth="yes"/>
      <point x="238" y="430"/>
      <point x="236" y="396"/>
      <point x="235" y="370" type="curve"/>
      <point x="244" y="407"/>
      <point x="261" y="453"/>
      <point x="275" y="482" type="curve" smooth="yes"/>
      <point x="296" y="525" type="line"/>
      <point x="509" y="525" type="line"/>
      <point x="406" y="354" type="line"/>
      <point x="515" y="0" type="line"/>
      <point x="296" y="0" type="line"/>
      <point x="249" y="184" type="line"/>
      <point x="238" y="163" type="line"/>
      <point x="238" y="0" type="line"/>
    </contour>
  </outline>
</glyph>
<glyph name="m" format="1">
  <advance width="766"/>
  <unicode hex="006D"/>
  <outline>
    <contour>
      <point x="23" y="0" type="line"/>
      <point x="23" y="525" type="line"/>
      <point x="233" y="525" type="line"/>
      <point x="233" y="494" type="line"/>
      <point x="256" y="512"/>
      <point x="300" y="536"/>
      <point x="360" y="536" type="curve" smooth="yes"/>
      <point x="412" y="536"/>
      <point x="443" y="520"/>
      <point x="469" y="490" type="curve"/>
      <point x="498" y="512"/>
      <point x="549" y="536"/>
      <point x="607" y="536" type="curve" smooth="yes"/>
      <point x="689" y="536"/>
      <point x="746" y="490"/>
      <point x="746" y="380" type="curve" smooth="yes"/>
      <point x="746" y="0" type="line"/>
      <point x="536" y="0" type="line"/>
      <point x="536" y="332" type="line" smooth="yes"/>
      <point x="536" y="354"/>
      <point x="529" y="365"/>
      <point x="512" y="365" type="curve" smooth="yes"/>
      <point x="497" y="365"/>
      <point x="487" y="356"/>
      <point x="487" y="338" type="curve" smooth="yes"/>
      <point x="487" y="0" type="line"/>
      <point x="282" y="0" type="line"/>
      <point x="282" y="332" type="line" smooth="yes"/>
      <point x="282" y="354"/>
      <point x="275" y="365"/>
      <point x="258" y="365" type="curve" smooth="yes"/>
      <point x="243" y="365"/>
      <point x="233" y="356"/>
      <point x="233" y="338" type="curve" smooth="yes"/>
      <point x="233" y="0" type="line"/>
    </contour>
  </outline>
</glyph>
<glyph name="n" format="1">
  <advance width="522"/>
  <unicode hex="006E"/>
  <outline>
    <contour>
      <point x="23" y="0" type="line"/>
      <point x="23" y="525" type="line"/>
      <point x="238" y="525" type="line"/>
      <point x="238" y="494" type="line"/>
      <point x="261" y="512"/>
      <point x="304" y="536"/>
      <point x="363" y="536" type="curve" smooth="yes"/>
      <point x="443" y="536"/>
      <point x="502" y="492"/>
      <point x="502" y="380" type="curve" smooth="yes"/>
      <point x="502" y="0" type="line"/>
      <point x="287" y="0" type="line"/>
      <point x="287" y="332" type="line" smooth="yes"/>
      <point x="287" y="354"/>
      <point x="280" y="365"/>
      <point x="263" y="365" type="curve" smooth="yes"/>
      <point x="248" y="365"/>
      <point x="238" y="356"/>
      <point x="238" y="338" type="curve" smooth="yes"/>
      <point x="238" y="0" type="line"/>
    </contour>
  </outline>
</glyph>
<glyph name="o" format="1">
  <advance width="498"/>
  <unicode hex="006F"/>
  <outline>
    <contour>
      <point x="248" y="-11" type="curve" smooth="yes"/>
      <point x="108" y="-11"/>
      <point x="13" y="65"/>
      <point x="13" y="261" type="curve" smooth="yes"/>
      <point x="13" y="453"/>
      <point x="103" y="536"/>
      <point x="250" y="536" type="curve" smooth="yes"/>
      <point x="392" y="536"/>
      <point x="485" y="458"/>
      <point x="485" y="263" type="curve" smooth="yes"/>
      <point x="485" y="67"/>
      <point x="392" y="-11"/>
    </contour>
    <contour>
      <point x="250" y="140" type="curve" smooth="yes"/>
      <point x="270" y="140"/>
      <point x="279" y="163"/>
      <point x="279" y="262" type="curve" smooth="yes"/>
      <point x="279" y="363"/>
      <point x="270" y="386"/>
      <point x="249" y="386" type="curve" smooth="yes"/>
      <point x="229" y="386"/>
      <point x="220" y="362"/>
      <point x="220" y="263" type="curve" smooth="yes"/>
      <point x="220" y="163"/>
      <point x="229" y="140"/>
    </contour>
  </outline>
</glyph>
<glyph name="p" format="1">
  <advance width="508"/>
  <unicode hex="0070"/>
  <outline>
    <contour>
      <point x="23" y="-193" type="line"/>
      <point x="23" y="525" type="line"/>
      <point x="238" y="525" type="line"/>
      <point x="238" y="495" type="line"/>
      <point x="267" y="521"/>
      <point x="293" y="536"/>
      <point x="339" y="536" type="curve" smooth="yes"/>
      <point x="425" y="536"/>
      <point x="494" y="467"/>
      <point x="494" y="264" type="curve" smooth="yes"/>
      <point x="494" y="58"/>
      <point x="424" y="-11"/>
      <point x="334" y="-11" type="curve" smooth="yes"/>
      <point x="291" y="-11"/>
      <point x="265" y="4"/>
      <point x="238" y="29" type="curve"/>
      <point x="238" y="-126" type="line"/>
    </contour>
    <contour>
      <point x="254" y="146" type="curve" smooth="yes"/>
      <point x="275" y="146"/>
      <point x="288" y="160"/>
      <point x="288" y="263" type="curve" smooth="yes"/>
      <point x="288" y="366"/>
      <point x="275" y="380"/>
      <point x="254" y="380" type="curve" smooth="yes"/>
      <point x="247" y="380"/>
      <point x="243" y="379"/>
      <point x="238" y="376" type="curve"/>
      <point x="238" y="149" type="line"/>
      <point x="243" y="146"/>
      <point x="247" y="146"/>
    </contour>
  </outline>
</glyph>
<glyph name="r" format="1">
  <advance width="386"/>
  <unicode hex="0072"/>
  <outline>
    <contour>
      <point x="23" y="0" type="line"/>
      <point x="23" y="525" type="line"/>
      <point x="238" y="525" type="line"/>
      <point x="238" y="494" type="line"/>
      <point x="273" y="526"/>
      <point x="311" y="537"/>
      <point x="347" y="537" type="curve" smooth="yes"/>
      <point x="362" y="537"/>
      <point x="375" y="534"/>
      <point x="388" y="531" type="curve"/>
      <point x="357" y="331" type="line"/>
      <point x="338" y="345"/>
      <point x="322" y="351"/>
      <point x="294" y="351" type="curve" smooth="yes"/>
      <point x="265" y="351"/>
      <point x="238" y="335"/>
      <point x="238" y="295" type="curve" smooth="yes"/>
      <point x="238" y="0" type="line"/>
    </contour>
  </outline>
</glyph>
<glyph name="s" format="1">
  <advance width="439"/>
  <unicode hex="0073"/>
  <outline>
    <contour>
      <point x="220" y="-11" type="curve" smooth="yes"/>
      <point x="136" y="-11"/>
      <point x="76" y="11"/>
      <point x="5" y="53" type="curve"/>
      <point x="73" y="186" type="line"/>
      <point x="119" y="160"/>
      <point x="181" y="134"/>
      <point x="224" y="134" type="curve" smooth="yes"/>
      <point x="238" y="134"/>
      <point x="244" y="139"/>
      <point x="244" y="148" type="curve" smooth="yes"/>
      <point x="244" y="157"/>
      <point x="237" y="165"/>
      <point x="201" y="178" type="curve" smooth="yes"/>
      <point x="61" y="228"/>
      <point x="22" y="269"/>
      <point x="22" y="365" type="curve" smooth="yes"/>
      <point x="22" y="465"/>
      <point x="98" y="536"/>
      <point x="227" y="536" type="curve" smooth="yes"/>
      <point x="308" y="536"/>
      <point x="366" y="517"/>
      <point x="422" y="484" type="curve"/>
      <point x="349" y="349" type="line"/>
      <point x="302" y="375"/>
      <point x="260" y="392"/>
      <point x="223" y="392" type="curve" smooth="yes"/>
      <point x="212" y="392"/>
      <point x="205" y="387"/>
      <point x="205" y="379" type="curve" smooth="yes"/>
      <point x="205" y="369"/>
      <point x="213" y="363"/>
      <point x="247" y="351" type="curve" smooth="yes"/>
      <point x="375" y="308"/>
      <point x="427" y="270"/>
      <point x="427" y="164" type="curve" smooth="yes"/>
      <point x="427" y="51"/>
      <point x="348" y="-11"/>
    </contour>
  </outline>
</glyph>
<glyph name="t" format="1">
  <advance width="364"/>
  <unicode hex="0074"/>
  <outline>
    <contour>
      <point x="217" y="-11" type="curve" smooth="yes"/>
      <point x="111" y="-11"/>
      <point x="49" y="28"/>
      <point x="49" y="141" type="curve" smooth="yes"/>
      <point x="49" y="373" type="line"/>
      <point x="5" y="373" type="line"/>
      <point x="5" y="525" type="line"/>
      <point x="49" y="525" type="line"/>
      <point x="49" y="666" type="line"/>
      <point x="261" y="732" type="line"/>
      <point x="261" y="525" type="line"/>
      <point x="349" y="525" type="line"/>
      <point x="349" y="373" type="line"/>
      <point x="258" y="373" type="line"/>
      <point x="258" y="192" type="line" smooth="yes"/>
      <point x="258" y="164"/>
      <point x="268" y="151"/>
      <point x="294" y="151" type="curve" smooth="yes"/>
      <point x="317" y="151"/>
      <point x="332" y="156"/>
      <point x="353" y="167" type="curve"/>
      <point x="335" y="8" type="line"/>
      <point x="307" y="-3"/>
      <point x="264" y="-11"/>
    </contour>
  </outline>
</glyph>
<glyph name="u" format="1">
  <advance width="522"/>
  <unicode hex="0075"/>
  <outline>
    <contour>
      <point x="159" y="-11" type="curve" smooth="yes"/>
      <point x="79" y="-11"/>
      <point x="20" y="33"/>
      <point x="20" y="145" type="curve" smooth="yes"/>
      <point x="20" y="525" type="line"/>
      <point x="235" y="525" type="line"/>
      <point x="235" y="193" type="line" smooth="yes"/>
      <point x="235" y="171"/>
      <point x="242" y="160"/>
      <point x="259" y="160" type="curve" smooth="yes"/>
      <point x="275" y="160"/>
      <point x="285" y="169"/>
      <point x="285" y="187" type="curve" smooth="yes"/>
      <point x="285" y="525" type="line"/>
      <point x="500" y="525" type="line"/>
      <point x="500" y="0" type="line"/>
      <point x="285" y="0" type="line"/>
      <point x="285" y="31" type="line"/>
      <point x="260" y="14"/>
      <point x="224" y="-11"/>
    </contour>
  </outline>
</glyph>
<glyph name="v" format="1">
  <advance width="503"/>
  <unicode hex="0076"/>
  <outline>
    <contour>
      <point x="131" y="0" type="line"/>
      <point x="-2" y="525" type="line"/>
      <point x="216" y="525" type="line"/>
      <point x="227" y="435" type="line" smooth="yes"/>
      <point x="238" y="343"/>
      <point x="253" y="251"/>
      <point x="256" y="169" type="curve"/>
      <point x="260" y="251"/>
      <point x="274" y="342"/>
      <point x="285" y="435" type="curve" smooth="yes"/>
      <point x="296" y="525" type="line"/>
      <point x="506" y="525" type="line"/>
      <point x="372" y="0" type="line"/>
    </contour>
  </outline>
</glyph>
<glyph name="w" format="1">
  <advance width="675"/>
  <unicode hex="0077"/>
  <outline>
    <contour>
      <point x="99" y="0" type="line"/>
      <point x="0" y="525" type="line"/>
      <point x="201" y="525" type="line"/>
      <point x="209" y="437" type="line" smooth="yes"/>
      <point x="215" y="370"/>
      <point x="225" y="269"/>
      <point x="226" y="212" type="curve"/>
      <point x="230" y="269"/>
      <point x="241" y="370"/>
      <point x="248" y="439" type="curve" smooth="yes"/>
      <point x="257" y="525" type="line"/>
      <point x="424" y="525" type="line"/>
      <point x="432" y="439" type="line" smooth="yes"/>
      <point x="438" y="370"/>
      <point x="451" y="269"/>
      <point x="454" y="212" type="curve"/>
      <point x="455" y="269"/>
      <point x="464" y="370"/>
      <point x="471" y="437" type="curve" smooth="yes"/>
      <point x="480" y="525" type="line"/>
      <point x="675" y="525" type="line"/>
      <point x="575" y="0" type="line"/>
      <point x="371" y="0" type="line"/>
      <point x="365" y="54" type="line" smooth="yes"/>
      <point x="356" y="138"/>
      <point x="342" y="221"/>
      <point x="339" y="285" type="curve"/>
      <point x="335" y="221"/>
      <point x="322" y="138"/>
      <point x="313" y="54" type="curve" smooth="yes"/>
      <point x="307" y="0" type="line"/>
    </contour>
  </outline>
</glyph>
<glyph name="x" format="1">
  <advance width="507"/>
  <unicode hex="0078"/>
  <outline>
    <contour>
      <point x="-4" y="0" type="line"/>
      <point x="128" y="270" type="line"/>
      <point x="5" y="525" type="line"/>
      <point x="221" y="525" type="line"/>
      <point x="227" y="504" type="line" smooth="yes"/>
      <point x="240" y="458"/>
      <point x="253" y="409"/>
      <point x="257" y="380" type="curve"/>
      <point x="260" y="410"/>
      <point x="276" y="456"/>
      <point x="287" y="504" type="curve" smooth="yes"/>
      <point x="292" y="525" type="line"/>
      <point x="502" y="525" type="line"/>
      <point x="380" y="272" type="line"/>
      <point x="511" y="0" type="line"/>
      <point x="294" y="0" type="line"/>
      <point x="281" y="45" type="line" smooth="yes"/>
      <point x="267" y="92"/>
      <point x="255" y="135"/>
      <point x="251" y="164" type="curve"/>
      <point x="247" y="134"/>
      <point x="235" y="92"/>
      <point x="221" y="45" type="curve" smooth="yes"/>
      <point x="208" y="0" type="line"/>
    </contour>
  </outline>
</glyph>
<glyph name="y" format="1">
  <advance width="503"/>
  <unicode hex="0079"/>
  <outline>
    <contour>
      <point x="102" y="-185" type="line"/>
      <point x="148" y="-28" type="line"/>
      <point x="-2" y="525" type="line"/>
      <point x="214" y="525" type="line"/>
      <point x="225" y="435" type="line" smooth="yes"/>
      <point x="236" y="343"/>
      <point x="251" y="251"/>
      <point x="254" y="169" type="curve"/>
      <point x="258" y="251"/>
      <point x="272" y="342"/>
      <point x="283" y="435" type="curve" smooth="yes"/>
      <point x="294" y="525" type="line"/>
      <point x="506" y="525" type="line"/>
      <point x="310" y="-185" type="line"/>
    </contour>
  </outline>
</glyph>
<glyph name="z" format="1">
  <advance width="452"/>
  <unicode hex="007A"/>
  <outline>
    <contour>
      <point x="17" y="0" type="line"/>
      <point x="17" y="139" type="line"/>
      <point x="193" y="373" type="line"/>
      <point x="181" y="372"/>
      <point x="87" y="372"/>
      <point x="74" y="372" type="curve" smooth="yes"/>
      <point x="29" y="372" type="line"/>
      <point x="29" y="525" type="line"/>
      <point x="436" y="525" type="line"/>
      <point x="436" y="386" type="line"/>
      <point x="259" y="152" type="line"/>
      <point x="271" y="153"/>
      <point x="369" y="153"/>
      <point x="383" y="153" type="curve" smooth="yes"/>
      <point x="436" y="153" type="line"/>
      <point x="436" y="0" type="line"/>
    </contour>
  </outline>
</glyph>
<glyph name="braceleft" format="1">
  <advance width="420"/>
  <unicode hex="007B"/>
  <outline>
    <contour>
      <point x="402" y="-110" type="line"/>
      <point x="181" y="-110"/>
      <point x="93" y="-49"/>
      <point x="93" y="112" type="curve" smooth="yes"/>
      <point x="93" y="154" type="line" smooth="yes"/>
      <point x="93" y="200"/>
      <point x="79" y="217"/>
      <point x="41" y="217" type="curve" smooth="yes"/>
      <point x="11" y="217" type="line"/>
      <point x="11" y="382" type="line"/>
      <point x="41" y="382" type="line" smooth="yes"/>
      <point x="79" y="382"/>
      <point x="93" y="399"/>
      <point x="93" y="445" type="curve" smooth="yes"/>
      <point x="93" y="487" type="line" smooth="yes"/>
      <point x="93" y="647"/>
      <point x="181" y="708"/>
      <point x="402" y="708" type="curve"/>
      <point x="402" y="571" type="line"/>
      <point x="326" y="563"/>
      <point x="302" y="541"/>
      <point x="302" y="470" type="curve" smooth="yes"/>
      <point x="302" y="446" type="line" smooth="yes"/>
      <point x="302" y="355"/>
      <point x="278" y="317"/>
      <point x="216" y="299" type="curve"/>
      <point x="278" y="282"/>
      <point x="302" y="244"/>
      <point x="302" y="153" type="curve" smooth="yes"/>
      <point x="302" y="128" type="line" smooth="yes"/>
      <point x="302" y="57"/>
      <point x="326" y="35"/>
      <point x="402" y="28" type="curve"/>
    </contour>
  </outline>
</glyph>
<glyph name="bar" format="1">
  <advance width="274"/>
  <unicode hex="007C"/>
  <outline>
    <contour>
      <point x="30" y="-185" type="line"/>
      <point x="30" y="800" type="line"/>
      <point x="245" y="800" type="line"/>
      <point x="245" y="-185" type="line"/>
    </contour>
  </outline>
</glyph>
<glyph name="braceright" format="1">
  <advance width="420"/>
  <unicode hex="007D"/>
  <outline>
    <contour>
      <point x="18" y="-110" type="curve"/>
      <point x="18" y="28" type="line"/>
      <point x="94" y="35"/>
      <point x="118" y="57"/>
      <point x="118" y="128" type="curve" smooth="yes"/>
      <point x="118" y="153" type="line" smooth="yes"/>
      <point x="118" y="244"/>
      <point x="142" y="282"/>
      <point x="204" y="299" type="curve"/>
      <point x="142" y="317"/>
      <point x="118" y="355"/>
      <point x="118" y="446" type="curve" smooth="yes"/>
      <point x="118" y="470" type="line" smooth="yes"/>
      <point x="118" y="541"/>
      <point x="94" y="563"/>
      <point x="18" y="571" type="curve"/>
      <point x="18" y="708" type="line"/>
      <point x="239" y="708"/>
      <point x="327" y="647"/>
      <point x="327" y="487" type="curve" smooth="yes"/>
      <point x="327" y="445" type="line" smooth="yes"/>
      <point x="327" y="399"/>
      <point x="341" y="382"/>
      <point x="379" y="382" type="curve" smooth="yes"/>
      <point x="409" y="382" type="line"/>
      <point x="409" y="217" type="line"/>
      <point x="379" y="217" type="line" smooth="yes"/>
      <point x="341" y="217"/>
      <point x="327" y="200"/>
      <point x="327" y="154" type="curve" smooth="yes"/>
      <point x="327" y="112" type="line" smooth="yes"/>
      <point x="327" y="-49"/>
      <point x="239" y="-110"/>
    </contour>
  </outline>
</glyph>
<glyph name="asciitilde" format="1">
  <advance width="507"/>
  <unicode hex="007E"/>
  <outline>
    <contour>
      <point x="140" y="230" type="curve"/>
      <point x="3" y="272" type="line"/>
      <point x="5" y="276"/>
      <point x="10" y="298"/>
      <point x="12" y="302" type="curve"/>
      <point x="56" y="446"/>
      <point x="97" y="488"/>
      <point x="169" y="488" type="curve" smooth="yes"/>
      <point x="208" y="488"/>
      <point x="235" y="477"/>
      <point x="276" y="452" type="curve" smooth="yes"/>
      <point x="299" y="439"/>
      <point x="314" y="428"/>
      <point x="326" y="428" type="curve" smooth="yes"/>
      <point x="342" y="428"/>
      <point x="348" y="437"/>
      <point x="368" y="496" type="curve"/>
      <point x="504" y="453" type="line"/>
      <point x="502" y="449"/>
      <point x="498" y="428"/>
      <point x="496" y="424" type="curve"/>
      <point x="450" y="273"/>
      <point x="410" y="238"/>
      <point x="339" y="238" type="curve" smooth="yes"/>
      <point x="300" y="238"/>
      <point x="273" y="248"/>
      <point x="232" y="273" type="curve" smooth="yes"/>
      <point x="209" y="286"/>
      <point x="193" y="297"/>
      <point x="181" y="297" type="curve" smooth="yes"/>
      <point x="165" y="297"/>
      <point x="158" y="286"/>
    </contour>
  </outline>
</glyph>
<glyph name="exclamdown" format="1">
  <advance width="286"/>
  <unicode hex="00A1"/>
  <outline>
    <contour>
      <point x="143" y="483" type="curve" smooth="yes"/>
      <point x="71" y="483"/>
      <point x="19" y="524"/>
      <point x="19" y="596" type="curve" smooth="yes"/>
      <point x="19" y="668"/>
      <point x="71" y="711"/>
      <point x="143" y="711" type="curve" smooth="yes"/>
      <point x="216" y="711"/>
      <point x="268" y="668"/>
      <point x="268" y="596" type="curve" smooth="yes"/>
      <point x="268" y="524"/>
      <point x="216" y="483"/>
    </contour>
    <contour>
      <point x="26" y="0" type="line"/>
      <point x="26" y="263" type="line"/>
      <point x="70" y="458" type="line"/>
      <point x="216" y="458" type="line"/>
      <point x="259" y="263" type="line"/>
      <point x="259" y="0" type="line"/>
    </contour>
  </outline>
</glyph>
<glyph name="cent" format="1">
  <advance width="457"/>
  <unicode hex="00A2"/>
  <outline>
    <contour>
      <point x="129" y="602" type="curve"/>
      <point x="129" y="711" type="line"/>
      <point x="343" y="711" type="line"/>
      <point x="343" y="607" type="line"/>
      <point x="408" y="578"/>
      <point x="442" y="514"/>
      <point x="457" y="427" type="curve"/>
      <point x="276" y="388" type="line"/>
      <point x="273" y="457"/>
      <point x="264" y="473"/>
      <point x="248" y="473" type="curve" smooth="yes"/>
      <point x="229" y="473"/>
      <point x="220" y="447"/>
      <point x="220" y="352" type="curve" smooth="yes"/>
      <point x="220" y="257"/>
      <point x="228" y="232"/>
      <point x="250" y="232" type="curve" smooth="yes"/>
      <point x="264" y="232"/>
      <point x="276" y="247"/>
      <point x="280" y="315" type="curve"/>
      <point x="456" y="269" type="line"/>
      <point x="440" y="185"/>
      <point x="402" y="127"/>
      <point x="343" y="99" type="curve"/>
      <point x="343" y="-5" type="line"/>
      <point x="129" y="-5" type="line"/>
      <point x="129" y="103" type="line"/>
      <point x="58" y="139"/>
      <point x="13" y="215"/>
      <point x="13" y="352" type="curve" smooth="yes"/>
      <point x="13" y="486"/>
      <point x="56" y="565"/>
    </contour>
  </outline>
</glyph>
<glyph name="sterling" format="1">
  <advance width="542"/>
  <unicode hex="00A3"/>
  <outline>
    <contour>
      <point x="87" y="254" type="curve"/>
      <point x="27" y="254" type="line"/>
      <point x="27" y="407" type="line"/>
      <point x="74" y="407" type="line"/>
      <point x="54" y="442"/>
      <point x="30" y="475"/>
      <point x="30" y="528" type="curve" smooth="yes"/>
      <point x="30" y="646"/>
      <point x="133" y="711"/>
      <point x="265" y="711" type="curve" smooth="yes"/>
      <point x="397" y="711"/>
      <point x="486" y="652"/>
      <point x="528" y="611" type="curve"/>
      <point x="414" y="469" type="line"/>
      <point x="369" y="510"/>
      <point x="315" y="531"/>
      <point x="280" y="531" type="curve" smooth="yes"/>
      <point x="254" y="531"/>
      <point x="239" y="518"/>
      <point x="239" y="499" type="curve" smooth="yes"/>
      <point x="239" y="469"/>
      <point x="261" y="444"/>
      <point x="278" y="407" type="curve"/>
      <point x="405" y="407" type="line"/>
      <point x="405" y="254" type="line"/>
      <point x="294" y="254" type="line"/>
      <point x="288" y="226"/>
      <point x="277" y="199"/>
      <point x="256" y="173" type="curve"/>
      <point x="515" y="173" type="line"/>
      <point x="515" y="0" type="line"/>
      <point x="14" y="0" type="line"/>
      <point x="14" y="143" type="line"/>
      <point x="54" y="177"/>
      <point x="77" y="213"/>
    </contour>
  </outline>
</glyph>
<glyph name="yen" format="1">
  <advance width="586"/>
  <unicode hex="00A5"/>
  <outline>
    <contour>
      <point x="182" y="0" type="line"/>
      <point x="182" y="98" type="line"/>
      <point x="53" y="98" type="line"/>
      <point x="53" y="262" type="line"/>
      <point x="168" y="262" type="line"/>
      <point x="165" y="288" type="line"/>
      <point x="-2" y="700" type="line"/>
      <point x="241" y="700" type="line"/>
      <point x="262" y="619" type="line" smooth="yes"/>
      <point x="280" y="549"/>
      <point x="291" y="488"/>
      <point x="295" y="436" type="curve"/>
      <point x="298" y="488"/>
      <point x="310" y="550"/>
      <point x="328" y="619" type="curve" smooth="yes"/>
      <point x="349" y="700" type="line"/>
      <point x="588" y="700" type="line"/>
      <point x="422" y="288" type="line"/>
      <point x="418" y="262" type="line"/>
      <point x="535" y="262" type="line"/>
      <point x="535" y="98" type="line"/>
      <point x="404" y="98" type="line"/>
      <point x="404" y="0" type="line"/>
    </contour>
  </outline>
</glyph>
<glyph name="section" format="1">
  <advance width="577"/>
  <unicode hex="00A7"/>
  <outline>
    <contour>
      <point x="284" y="-164" type="curve" smooth="yes"/>
      <point x="195" y="-164"/>
      <point x="110" y="-129"/>
      <point x="55" y="-84" type="curve"/>
      <point x="139" y="50" type="line"/>
      <point x="192" y="16"/>
      <point x="247" y="-12"/>
      <point x="290" y="-12" type="curve" smooth="yes"/>
      <point x="306" y="-12"/>
      <point x="312" y="-6"/>
      <point x="312" y="4" type="curve" smooth="yes"/>
      <point x="312" y="18"/>
      <point x="296" y="29"/>
      <point x="233" y="52" type="curve" smooth="yes"/>
      <point x="81" y="107"/>
      <point x="15" y="156"/>
      <point x="15" y="255" type="curve" smooth="yes"/>
      <point x="15" y="331"/>
      <point x="56" y="383"/>
      <point x="107" y="418" type="curve"/>
      <point x="85" y="444"/>
      <point x="71" y="477"/>
      <point x="71" y="522" type="curve" smooth="yes"/>
      <point x="71" y="629"/>
      <point x="146" y="711"/>
      <point x="292" y="711" type="curve" smooth="yes"/>
      <point x="381" y="711"/>
      <point x="466" y="677"/>
      <point x="521" y="632" type="curve"/>
      <point x="437" y="498" type="line"/>
      <point x="384" y="531"/>
      <point x="330" y="559"/>
      <point x="287" y="559" type="curve" smooth="yes"/>
      <point x="271" y="559"/>
      <point x="264" y="553"/>
      <point x="264" y="542" type="curve" smooth="yes"/>
      <point x="264" y="527"/>
      <point x="283" y="517"/>
      <point x="343" y="495" type="curve" smooth="yes"/>
      <point x="493" y="441"/>
      <point x="560" y="393"/>
      <point x="561" y="294" type="curve" smooth="yes"/>
      <point x="561" y="218"/>
      <point x="521" y="165"/>
      <point x="469" y="130" type="curve"/>
      <point x="491" y="104"/>
      <point x="505" y="71"/>
      <point x="505" y="28" type="curve" smooth="yes"/>
      <point x="505" y="-83"/>
      <point x="430" y="-164"/>
    </contour>
    <contour>
      <point x="350" y="215" type="curve"/>
      <point x="360" y="226"/>
      <point x="367" y="238"/>
      <point x="367" y="251" type="curve" smooth="yes"/>
      <point x="367" y="268"/>
      <point x="358" y="277"/>
      <point x="300" y="300" type="curve" smooth="yes"/>
      <point x="276" y="310"/>
      <point x="252" y="321"/>
      <point x="226" y="333" type="curve"/>
      <point x="216" y="321"/>
      <point x="209" y="309"/>
      <point x="209" y="296" type="curve" smooth="yes"/>
      <point x="209" y="279"/>
      <point x="219" y="269"/>
      <point x="277" y="246" type="curve" smooth="yes"/>
      <point x="300" y="237"/>
      <point x="325" y="226"/>
    </contour>
  </outline>
</glyph>
<glyph name="dieresis" format="1">
  <advance width="412"/>
  <unicode hex="00A8"/>
  <outline>
    <contour>
      <point x="320" y="548" type="curve" smooth="yes"/>
      <point x="262" y="548"/>
      <point x="214" y="596"/>
      <point x="214" y="651" type="curve" smooth="yes"/>
      <point x="214" y="710"/>
      <point x="262" y="756"/>
      <point x="320" y="756" type="curve" smooth="yes"/>
      <point x="375" y="756"/>
      <point x="425" y="710"/>
      <point x="425" y="651" type="curve" smooth="yes"/>
      <point x="425" y="596"/>
      <point x="375" y="548"/>
    </contour>
    <contour>
      <point x="94" y="548" type="curve" smooth="yes"/>
      <point x="37" y="548"/>
      <point x="-13" y="596"/>
      <point x="-13" y="651" type="curve" smooth="yes"/>
      <point x="-13" y="710"/>
      <point x="37" y="756"/>
      <point x="94" y="756" type="curve" smooth="yes"/>
      <point x="150" y="756"/>
      <point x="200" y="710"/>
      <point x="200" y="651" type="curve" smooth="yes"/>
      <point x="200" y="596"/>
      <point x="150" y="548"/>
    </contour>
  </outline>
</glyph>
<glyph name="copyright" format="1">
  <advance width="652"/>
  <unicode hex="00A9"/>
  <outline>
    <contour>
      <point x="325" y="-11" type="curve" smooth="yes"/>
      <point x="131" y="-11"/>
      <point x="26" y="129"/>
      <point x="26" y="349" type="curve" smooth="yes"/>
      <point x="26" y="570"/>
      <point x="132" y="711"/>
      <point x="326" y="711" type="curve" smooth="yes"/>
      <point x="520" y="711"/>
      <point x="627" y="571"/>
      <point x="627" y="351" type="curve" smooth="yes"/>
      <point x="627" y="130"/>
      <point x="519" y="-11"/>
    </contour>
    <contour>
      <point x="326" y="54" type="curve" smooth="yes"/>
      <point x="474" y="54"/>
      <point x="555" y="155"/>
      <point x="555" y="349" type="curve" smooth="yes"/>
      <point x="555" y="543"/>
      <point x="472" y="646"/>
      <point x="325" y="646" type="curve" smooth="yes"/>
      <point x="178" y="646"/>
      <point x="98" y="544"/>
      <point x="98" y="351" type="curve" smooth="yes"/>
      <point x="98" y="157"/>
      <point x="179" y="54"/>
    </contour>
    <contour>
      <point x="330" y="153" type="curve" smooth="yes"/>
      <point x="241" y="153"/>
      <point x="176" y="204"/>
      <point x="176" y="355" type="curve" smooth="yes"/>
      <point x="176" y="506"/>
      <point x="241" y="557"/>
      <point x="331" y="557" type="curve" smooth="yes"/>
      <point x="419" y="557"/>
      <point x="457" y="505"/>
      <point x="468" y="410" type="curve"/>
      <point x="353" y="386" type="line"/>
      <point x="350" y="445"/>
      <point x="343" y="456"/>
      <point x="329" y="456" type="curve" smooth="yes"/>
      <point x="312" y="456"/>
      <point x="305" y="435"/>
      <point x="305" y="355" type="curve" smooth="yes"/>
      <point x="305" y="276"/>
      <point x="311" y="254"/>
      <point x="329" y="254" type="curve" smooth="yes"/>
      <point x="343" y="254"/>
      <point x="350" y="265"/>
      <point x="356" y="318" type="curve"/>
      <point x="471" y="288" type="line"/>
      <point x="458" y="215"/>
      <point x="425" y="153"/>
    </contour>
  </outline>
</glyph>
<glyph name="ordfeminine" format="1">
  <advance width="416"/>
  <unicode hex="00AA"/>
  <outline>
    <contour>
      <point x="136" y="269" type="curve" smooth="yes"/>
      <point x="66" y="269"/>
      <point x="19" y="317"/>
      <point x="19" y="410" type="curve" smooth="yes"/>
      <point x="19" y="506"/>
      <point x="75" y="550"/>
      <point x="148" y="550" type="curve" smooth="yes"/>
      <point x="178" y="550"/>
      <point x="199" y="545"/>
      <point x="220" y="537" type="curve"/>
      <point x="220" y="548" type="line" smooth="yes"/>
      <point x="220" y="578"/>
      <point x="211" y="585"/>
      <point x="184" y="585" type="curve" smooth="yes"/>
      <point x="150" y="585"/>
      <point x="115" y="578"/>
      <point x="76" y="560" type="curve"/>
      <point x="41" y="671" type="line"/>
      <point x="88" y="696"/>
      <point x="157" y="711"/>
      <point x="226" y="711" type="curve" smooth="yes"/>
      <point x="335" y="711"/>
      <point x="390" y="673"/>
      <point x="390" y="567" type="curve" smooth="yes"/>
      <point x="390" y="278" type="line"/>
      <point x="220" y="278" type="line"/>
      <point x="220" y="301" type="line"/>
      <point x="193" y="282"/>
      <point x="166" y="269"/>
    </contour>
    <contour>
      <point x="201" y="379" type="curve" smooth="yes"/>
      <point x="207" y="379"/>
      <point x="214" y="381"/>
      <point x="220" y="383" type="curve"/>
      <point x="220" y="450" type="line"/>
      <point x="214" y="453"/>
      <point x="207" y="455"/>
      <point x="201" y="455" type="curve" smooth="yes"/>
      <point x="187" y="455"/>
      <point x="181" y="448"/>
      <point x="181" y="415" type="curve" smooth="yes"/>
      <point x="181" y="386"/>
      <point x="187" y="379"/>
    </contour>
  </outline>
</glyph>
<glyph name="guillemotleft" format="1">
  <advance width="601"/>
  <unicode hex="00AB"/>
  <outline>
    <contour>
      <point x="358" y="0" type="line"/>
      <point x="287" y="263" type="line"/>
      <point x="358" y="525" type="line"/>
      <point x="585" y="525" type="line"/>
      <point x="513" y="263" type="line"/>
      <point x="585" y="0" type="line"/>
    </contour>
    <contour>
      <point x="85" y="0" type="line"/>
      <point x="13" y="263" type="line"/>
      <point x="85" y="525" type="line"/>
      <point x="311" y="525" type="line"/>
      <point x="240" y="263" type="line"/>
      <point x="311" y="0" type="line"/>
    </contour>
  </outline>
</glyph>
<glyph name="degree" format="1">
  <advance width="417"/>
  <unicode hex="00B0"/>
  <outline>
    <contour>
      <point x="209" y="288" type="curve" smooth="yes"/>
      <point x="90" y="288"/>
      <point x="16" y="375"/>
      <point x="16" y="500" type="curve" smooth="yes"/>
      <point x="16" y="623"/>
      <point x="90" y="711"/>
      <point x="209" y="711" type="curve" smooth="yes"/>
      <point x="328" y="711"/>
      <point x="402" y="623"/>
      <point x="402" y="500" type="curve" smooth="yes"/>
      <point x="402" y="375"/>
      <point x="328" y="288"/>
    </contour>
    <contour>
      <point x="209" y="415" type="curve" smooth="yes"/>
      <point x="243" y="415"/>
      <point x="262" y="444"/>
      <point x="262" y="500" type="curve" smooth="yes"/>
      <point x="262" y="552"/>
      <point x="242" y="582"/>
      <point x="209" y="582" type="curve" smooth="yes"/>
      <point x="175" y="582"/>
      <point x="155" y="554"/>
      <point x="155" y="500" type="curve" smooth="yes"/>
      <point x="155" y="444"/>
      <point x="175" y="415"/>
    </contour>
  </outline>
</glyph>
<glyph name="acute" format="1">
  <advance width="413"/>
  <unicode hex="00B4"/>
  <outline>
    <contour>
      <point x="77" y="557" type="line"/>
      <point x="153" y="745" type="line"/>
      <point x="419" y="745" type="line"/>
      <point x="240" y="557" type="line"/>
    </contour>
  </outline>
</glyph>
<glyph name="paragraph" format="1">
  <advance width="597"/>
  <unicode hex="00B6"/>
  <outline>
    <contour>
      <point x="247" y="-185" type="line"/>
      <point x="247" y="261" type="line"/>
      <point x="243" y="262"/>
      <point x="212" y="263"/>
      <point x="208" y="264" type="curve"/>
      <point x="103" y="274"/>
      <point x="19" y="345"/>
      <point x="19" y="481" type="curve" smooth="yes"/>
      <point x="19" y="624"/>
      <point x="121" y="700"/>
      <point x="240" y="700" type="curve" smooth="yes"/>
      <point x="568" y="700" type="line"/>
      <point x="568" y="-185" type="line"/>
      <point x="427" y="-185" type="line"/>
      <point x="427" y="582" type="line"/>
      <point x="389" y="582" type="line"/>
      <point x="389" y="-185" type="line"/>
    </contour>
  </outline>
</glyph>
<glyph name="periodcentered" format="1">
  <advance width="299"/>
  <unicode hex="00B7"/>
  <outline>
    <contour>
      <point x="150" y="239" type="curve" smooth="yes"/>
      <point x="71" y="239"/>
      <point x="21" y="289"/>
      <point x="21" y="367" type="curve" smooth="yes"/>
      <point x="21" y="446"/>
      <point x="71" y="493"/>
      <point x="150" y="493" type="curve" smooth="yes"/>
      <point x="228" y="493"/>
      <point x="279" y="446"/>
      <point x="279" y="367" type="curve" smooth="yes"/>
      <point x="279" y="289"/>
      <point x="228" y="239"/>
    </contour>
  </outline>
</glyph>
<glyph name="cedilla" format="1">
  <advance width="415"/>
  <unicode hex="00B8"/>
  <outline>
    <contour>
      <point x="213" y="-191" type="curve" smooth="yes"/>
      <point x="156" y="-191"/>
      <point x="109" y="-178"/>
      <point x="71" y="-158" type="curve"/>
      <point x="94" y="-101" type="line"/>
      <point x="132" y="-119"/>
      <point x="157" y="-127"/>
      <point x="189" y="-127" type="curve" smooth="yes"/>
      <point x="212" y="-127"/>
      <point x="221" y="-119"/>
      <point x="221" y="-106" type="curve" smooth="yes"/>
      <point x="221" y="-94"/>
      <point x="213" y="-89"/>
      <point x="203" y="-89" type="curve" smooth="yes"/>
      <point x="191" y="-89"/>
      <point x="183" y="-93"/>
      <point x="175" y="-100" type="curve"/>
      <point x="132" y="-78" type="line"/>
      <point x="162" y="6" type="line"/>
      <point x="227" y="6" type="line"/>
      <point x="212" y="-36" type="line"/>
      <point x="223" y="-32"/>
      <point x="239" y="-30"/>
      <point x="254" y="-30" type="curve" smooth="yes"/>
      <point x="295" y="-30"/>
      <point x="331" y="-51"/>
      <point x="331" y="-106" type="curve" smooth="yes"/>
      <point x="331" y="-166"/>
      <point x="278" y="-191"/>
    </contour>
  </outline>
</glyph>
<glyph name="ordmasculine" format="1">
  <advance width="420"/>
  <unicode hex="00BA"/>
  <outline>
    <contour>
      <point x="209" y="271" type="curve" smooth="yes"/>
      <point x="96" y="271"/>
      <point x="15" y="334"/>
      <point x="15" y="489" type="curve" smooth="yes"/>
      <point x="15" y="643"/>
      <point x="92" y="711"/>
      <point x="211" y="711" type="curve" smooth="yes"/>
      <point x="326" y="711"/>
      <point x="405" y="646"/>
      <point x="405" y="491" type="curve" smooth="yes"/>
      <point x="405" y="335"/>
      <point x="326" y="271"/>
    </contour>
    <contour>
      <point x="211" y="388" type="curve" smooth="yes"/>
      <point x="226" y="388"/>
      <point x="234" y="411"/>
      <point x="234" y="490" type="curve" smooth="yes"/>
      <point x="234" y="571"/>
      <point x="226" y="595"/>
      <point x="210" y="595" type="curve" smooth="yes"/>
      <point x="195" y="595"/>
      <point x="187" y="570"/>
      <point x="187" y="491" type="curve" smooth="yes"/>
      <point x="187" y="412"/>
      <point x="195" y="388"/>
    </contour>
  </outline>
</glyph>
<glyph name="guillemotright" format="1">
  <advance width="601"/>
  <unicode hex="00BB"/>
  <outline>
    <contour>
      <point x="290" y="0" type="line"/>
      <point x="362" y="263" type="line"/>
      <point x="290" y="525" type="line"/>
      <point x="517" y="525" type="line"/>
      <point x="588" y="263" type="line"/>
      <point x="517" y="0" type="line"/>
    </contour>
    <contour>
      <point x="17" y="0" type="line"/>
      <point x="88" y="263" type="line"/>
      <point x="17" y="525" type="line"/>
      <point x="243" y="525" type="line"/>
      <point x="315" y="263" type="line"/>
      <point x="243" y="0" type="line"/>
    </contour>
  </outline>
</glyph>
<glyph name="questiondown" format="1">
  <advance width="497"/>
  <unicode hex="00BF"/>
  <outline>
    <contour>
      <point x="264" y="711" type="curve" smooth="yes"/>
      <point x="337" y="711"/>
      <point x="389" y="668"/>
      <point x="389" y="596" type="curve" smooth="yes"/>
      <point x="389" y="524"/>
      <point x="337" y="483"/>
      <point x="264" y="483" type="curve" smooth="yes"/>
      <point x="192" y="483"/>
      <point x="140" y="524"/>
      <point x="140" y="596" type="curve" smooth="yes"/>
      <point x="140" y="668"/>
      <point x="192" y="711"/>
    </contour>
    <contour>
      <point x="365" y="457" type="line"/>
      <point x="369" y="348"/>
      <point x="336" y="313"/>
      <point x="262" y="251" type="curve" smooth="yes"/>
      <point x="232" y="226"/>
      <point x="215" y="209"/>
      <point x="215" y="191" type="curve" smooth="yes"/>
      <point x="215" y="178"/>
      <point x="222" y="168"/>
      <point x="242" y="168" type="curve" smooth="yes"/>
      <point x="285" y="168"/>
      <point x="335" y="215"/>
      <point x="355" y="242" type="curve"/>
      <point x="501" y="128" type="line"/>
      <point x="456" y="65"/>
      <point x="377" y="-11"/>
      <point x="230" y="-11" type="curve" smooth="yes"/>
      <point x="96" y="-11"/>
      <point x="5" y="57"/>
      <point x="5" y="163" type="curve" smooth="yes"/>
      <point x="5" y="246"/>
      <point x="39" y="294"/>
      <point x="105" y="344" type="curve" smooth="yes"/>
      <point x="153" y="381"/>
      <point x="159" y="409"/>
      <point x="161" y="457" type="curve"/>
    </contour>
  </outline>
</glyph>
<glyph name="Aring" format="1">
  <advance width="600"/>
  <unicode hex="00C5"/>
  <outline>
    <contour>
      <point x="446" y="657" type="curve"/>
      <point x="598" y="0" type="line"/>
      <point x="374" y="0" type="line"/>
      <point x="358" y="93" type="line"/>
      <point x="238" y="93" type="line"/>
      <point x="222" y="0" type="line"/>
      <point x="2" y="0" type="line"/>
      <point x="155" y="657" type="line"/>
      <point x="141" y="681"/>
      <point x="133" y="709"/>
      <point x="133" y="739" type="curve" smooth="yes"/>
      <point x="133" y="831"/>
      <point x="206" y="902"/>
      <point x="301" y="902" type="curve" smooth="yes"/>
      <point x="395" y="902"/>
      <point x="468" y="831"/>
      <point x="468" y="739" type="curve" smooth="yes"/>
      <point x="468" y="709"/>
      <point x="460" y="681"/>
    </contour>
    <contour>
      <point x="301" y="677" type="curve" smooth="yes"/>
      <point x="336" y="677"/>
      <point x="358" y="703"/>
      <point x="358" y="739" type="curve" smooth="yes"/>
      <point x="358" y="776"/>
      <point x="336" y="804"/>
      <point x="301" y="804" type="curve" smooth="yes"/>
      <point x="265" y="804"/>
      <point x="245" y="776"/>
      <point x="245" y="739" type="curve" smooth="yes"/>
      <point x="245" y="703"/>
      <point x="265" y="677"/>
    </contour>
    <contour>
      <point x="269" y="255" type="line"/>
      <point x="327" y="255" type="line"/>
      <point x="323" y="284" type="line" smooth="yes"/>
      <point x="312" y="367"/>
      <point x="304" y="409"/>
      <point x="298" y="499" type="curve"/>
      <point x="293" y="409"/>
      <point x="282" y="349"/>
      <point x="273" y="284" type="curve" smooth="yes"/>
    </contour>
  </outline>
</glyph>
<glyph name="AE" format="1">
  <advance width="869"/>
  <unicode hex="00C6"/>
  <outline>
    <contour>
      <point x="256" y="93" type="line"/>
      <point x="226" y="0" type="line"/>
      <point x="-4" y="0" type="line"/>
      <point x="254" y="700" type="line"/>
      <point x="844" y="700" type="line"/>
      <point x="844" y="523" type="line"/>
      <point x="609" y="523" type="line"/>
      <point x="609" y="441" type="line"/>
      <point x="785" y="441" type="line"/>
      <point x="785" y="266" type="line"/>
      <point x="609" y="266" type="line"/>
      <point x="609" y="177" type="line"/>
      <point x="842" y="177" type="line"/>
      <point x="842" y="0" type="line"/>
      <point x="386" y="0" type="line"/>
      <point x="386" y="93" type="line"/>
    </contour>
    <contour>
      <point x="308" y="255" type="line"/>
      <point x="386" y="255" type="line"/>
      <point x="386" y="412" type="line" smooth="yes"/>
      <point x="386" y="451"/>
      <point x="387" y="505"/>
      <point x="388" y="539" type="curve"/>
      <point x="383" y="502"/>
      <point x="362" y="423"/>
      <point x="337" y="346" type="curve" smooth="yes"/>
    </contour>
  </outline>
</glyph>
<glyph name="Ccedilla" format="1">
  <advance width="553"/>
  <unicode hex="00C7"/>
  <outline>
    <contour>
      <point x="289" y="-191" type="curve" smooth="yes"/>
      <point x="232" y="-191"/>
      <point x="185" y="-178"/>
      <point x="147" y="-158" type="curve"/>
      <point x="170" y="-101" type="line"/>
      <point x="208" y="-119"/>
      <point x="233" y="-127"/>
      <point x="265" y="-127" type="curve" smooth="yes"/>
      <point x="288" y="-127"/>
      <point x="297" y="-119"/>
      <point x="297" y="-106" type="curve" smooth="yes"/>
      <point x="297" y="-94"/>
      <point x="289" y="-89"/>
      <point x="279" y="-89" type="curve" smooth="yes"/>
      <point x="267" y="-89"/>
      <point x="259" y="-93"/>
      <point x="251" y="-100" type="curve"/>
      <point x="208" y="-78" type="line"/>
      <point x="234" y="-6" type="line"/>
      <point x="107" y="17"/>
      <point x="18" y="116"/>
      <point x="18" y="350" type="curve" smooth="yes"/>
      <point x="18" y="620"/>
      <point x="134" y="711"/>
      <point x="296" y="711" type="curve" smooth="yes"/>
      <point x="454" y="711"/>
      <point x="522" y="619"/>
      <point x="542" y="449" type="curve"/>
      <point x="335" y="405" type="line"/>
      <point x="329" y="511"/>
      <point x="318" y="531"/>
      <point x="292" y="531" type="curve" smooth="yes"/>
      <point x="261" y="531"/>
      <point x="249" y="492"/>
      <point x="249" y="350" type="curve" smooth="yes"/>
      <point x="249" y="210"/>
      <point x="260" y="169"/>
      <point x="292" y="169" type="curve" smooth="yes"/>
      <point x="318" y="169"/>
      <point x="331" y="189"/>
      <point x="342" y="284" type="curve"/>
      <point x="547" y="231" type="line"/>
      <point x="525" y="103"/>
      <point x="463" y="-10"/>
      <point x="297" y="-11" type="curve"/>
      <point x="288" y="-36" type="line"/>
      <point x="299" y="-32"/>
      <point x="315" y="-30"/>
      <point x="330" y="-30" type="curve" smooth="yes"/>
      <point x="371" y="-30"/>
      <point x="407" y="-51"/>
      <point x="407" y="-106" type="curve" smooth="yes"/>
      <point x="407" y="-166"/>
      <point x="354" y="-191"/>
    </contour>
  </outline>
</glyph>
<glyph name="Eth" format="1">
  <advance width="599"/>
  <unicode hex="00D0"/>
  <outline>
    <contour>
      <point x="50" y="0" type="line"/>
      <point x="50" y="271" type="line"/>
      <point x="12" y="271" type="line"/>
      <point x="12" y="443" type="line"/>
      <point x="50" y="443" type="line"/>
      <point x="50" y="700" type="line"/>
      <point x="288" y="700" type="line" smooth="yes"/>
      <point x="480" y="700"/>
      <point x="582" y="599"/>
      <point x="582" y="350" type="curve" smooth="yes"/>
      <point x="582" y="101"/>
      <point x="480" y="0"/>
      <point x="288" y="0" type="curve" smooth="yes"/>
    </contour>
    <contour>
      <point x="262" y="179" type="line"/>
      <point x="289" y="179" type="line" smooth="yes"/>
      <point x="332" y="179"/>
      <point x="353" y="200"/>
      <point x="353" y="350" type="curve" smooth="yes"/>
      <point x="353" y="500"/>
      <point x="332" y="521"/>
      <point x="289" y="521" type="curve" smooth="yes"/>
      <point x="262" y="521" type="line"/>
      <point x="262" y="443" type="line"/>
      <point x="314" y="443" type="line"/>
      <point x="314" y="271" type="line"/>
      <point x="262" y="271" type="line"/>
    </contour>
  </outline>
</glyph>
<glyph name="Oslash" format="1">
  <advance width="591"/>
  <unicode hex="00D8"/>
  <outline>
    <contour>
      <point x="-3" y="-50" type="line"/>
      <point x="72" y="99" type="line"/>
      <point x="38" y="156"/>
      <point x="18" y="237"/>
      <point x="18" y="350" type="curve" smooth="yes"/>
      <point x="18" y="621"/>
      <point x="136" y="711"/>
      <point x="296" y="711" type="curve" smooth="yes"/>
      <point x="320" y="711"/>
      <point x="344" y="709"/>
      <point x="367" y="704" type="curve"/>
      <point x="390" y="750" type="line"/>
      <point x="593" y="750" type="line"/>
      <point x="518" y="602" type="line"/>
      <point x="554" y="545"/>
      <point x="574" y="463"/>
      <point x="574" y="350" type="curve" smooth="yes"/>
      <point x="574" y="79"/>
      <point x="455" y="-11"/>
      <point x="296" y="-11" type="curve" smooth="yes"/>
      <point x="271" y="-11"/>
      <point x="246" y="-9"/>
      <point x="223" y="-4" type="curve"/>
      <point x="200" y="-50" type="line"/>
    </contour>
    <contour>
      <point x="296" y="169" type="curve" smooth="yes"/>
      <point x="319" y="169"/>
      <point x="342" y="188"/>
      <point x="342" y="350" type="curve" smooth="yes"/>
      <point x="342" y="512"/>
      <point x="319" y="531"/>
      <point x="296" y="531" type="curve" smooth="yes"/>
      <point x="272" y="531"/>
      <point x="249" y="512"/>
      <point x="249" y="350" type="curve" smooth="yes"/>
      <point x="249" y="188"/>
      <point x="272" y="169"/>
    </contour>
  </outline>
</glyph>
<glyph name="Thorn" format="1">
  <advance width="547"/>
  <unicode hex="00DE"/>
  <outline>
    <contour>
      <point x="27" y="0" type="line"/>
      <point x="27" y="700" type="line"/>
      <point x="257" y="700" type="line"/>
      <point x="257" y="604" type="line"/>
      <point x="278" y="604" type="line" smooth="yes"/>
      <point x="441" y="604"/>
      <point x="538" y="537"/>
      <point x="538" y="360" type="curve" smooth="yes"/>
      <point x="538" y="183"/>
      <point x="441" y="116"/>
      <point x="278" y="116" type="curve" smooth="yes"/>
      <point x="257" y="116" type="line"/>
      <point x="257" y="0" type="line"/>
    </contour>
    <contour>
      <point x="252" y="282" type="line"/>
      <point x="267" y="282" type="line" smooth="yes"/>
      <point x="303" y="282"/>
      <point x="319" y="298"/>
      <point x="319" y="358" type="curve" smooth="yes"/>
      <point x="319" y="418"/>
      <point x="303" y="434"/>
      <point x="267" y="434" type="curve" smooth="yes"/>
      <point x="252" y="434" type="line"/>
    </contour>
  </outline>
</glyph>
<glyph name="germandbls" format="1">
  <advance width="537"/>
  <unicode hex="00DF"/>
  <outline>
    <contour>
      <point x="23" y="-193" type="line"/>
      <point x="23" y="498" type="line" smooth="yes"/>
      <point x="23" y="674"/>
      <point x="137" y="726"/>
      <point x="272" y="726" type="curve" smooth="yes"/>
      <point x="409" y="726"/>
      <point x="491" y="669"/>
      <point x="491" y="545" type="curve" smooth="yes"/>
      <point x="491" y="457"/>
      <point x="453" y="423"/>
      <point x="416" y="403" type="curve"/>
      <point x="467" y="388"/>
      <point x="522" y="351"/>
      <point x="522" y="227" type="curve" smooth="yes"/>
      <point x="522" y="74"/>
      <point x="449" y="0"/>
      <point x="284" y="0" type="curve" smooth="yes"/>
      <point x="267" y="0" type="line"/>
      <point x="267" y="151" type="line"/>
      <point x="301" y="151"/>
      <point x="315" y="173"/>
      <point x="315" y="231" type="curve" smooth="yes"/>
      <point x="315" y="290"/>
      <point x="302" y="311"/>
      <point x="267" y="311" type="curve"/>
      <point x="267" y="457" type="line"/>
      <point x="295" y="457"/>
      <point x="302" y="476"/>
      <point x="302" y="522" type="curve" smooth="yes"/>
      <point x="302" y="566"/>
      <point x="293" y="579"/>
      <point x="271" y="579" type="curve" smooth="yes"/>
      <point x="250" y="579"/>
      <point x="239" y="564"/>
      <point x="239" y="518" type="curve" smooth="yes"/>
      <point x="239" y="-124" type="line"/>
    </contour>
  </outline>
</glyph>
<glyph name="ae" format="1">
  <advance width="720"/>
  <unicode hex="00E6"/>
  <outline>
    <contour>
      <point x="157" y="-11" type="curve" smooth="yes"/>
      <point x="64" y="-11"/>
      <point x="9" y="41"/>
      <point x="9" y="163" type="curve" smooth="yes"/>
      <point x="9" y="281"/>
      <point x="72" y="336"/>
      <point x="162" y="336" type="curve" smooth="yes"/>
      <point x="201" y="336"/>
      <point x="228" y="330"/>
      <point x="254" y="319" type="curve"/>
      <point x="254" y="335" type="line" smooth="yes"/>
      <point x="254" y="374"/>
      <point x="242" y="386"/>
      <point x="207" y="386" type="curve" smooth="yes"/>
      <point x="164" y="386"/>
      <point x="127" y="377"/>
      <point x="80" y="355" type="curve"/>
      <point x="36" y="488" type="line"/>
      <point x="94" y="518"/>
      <point x="174" y="536"/>
      <point x="260" y="536" type="curve" smooth="yes"/>
      <point x="315" y="536"/>
      <point x="353" y="523"/>
      <point x="382" y="497" type="curve"/>
      <point x="411" y="521"/>
      <point x="452" y="536"/>
      <point x="491" y="536" type="curve" smooth="yes"/>
      <point x="617" y="536"/>
      <point x="708" y="466"/>
      <point x="708" y="235" type="curve" smooth="yes"/>
      <point x="708" y="231"/>
      <point x="708" y="213"/>
      <point x="708" y="210" type="curve"/>
      <point x="448" y="210" type="line"/>
      <point x="454" y="143"/>
      <point x="471" y="132"/>
      <point x="492" y="132" type="curve" smooth="yes"/>
      <point x="518" y="132"/>
      <point x="530" y="157"/>
      <point x="535" y="183" type="curve"/>
      <point x="700" y="139" type="line"/>
      <point x="674" y="57"/>
      <point x="612" y="-11"/>
      <point x="491" y="-11" type="curve" smooth="yes"/>
      <point x="412" y="-11"/>
      <point x="363" y="12"/>
      <point x="326" y="52" type="curve"/>
      <point x="276" y="16"/>
      <point x="230" y="-11"/>
    </contour>
    <contour>
      <point x="448" y="321" type="curve"/>
      <point x="523" y="321" type="line"/>
      <point x="520" y="384"/>
      <point x="510" y="399"/>
      <point x="486" y="399" type="curve" smooth="yes"/>
      <point x="471" y="399"/>
      <point x="453" y="394"/>
    </contour>
    <contour>
      <point x="229" y="120" type="curve" smooth="yes"/>
      <point x="238" y="120"/>
      <point x="250" y="124"/>
      <point x="261" y="130" type="curve"/>
      <point x="257" y="145"/>
      <point x="255" y="197"/>
      <point x="255" y="216" type="curve"/>
      <point x="246" y="220"/>
      <point x="237" y="222"/>
      <point x="229" y="222" type="curve" smooth="yes"/>
      <point x="210" y="222"/>
      <point x="201" y="211"/>
      <point x="201" y="169" type="curve" smooth="yes"/>
      <point x="201" y="132"/>
      <point x="210" y="120"/>
    </contour>
  </outline>
</glyph>
<glyph name="ccedilla" format="1">
  <advance width="465"/>
  <unicode hex="00E7"/>
  <outline>
    <contour>
      <point x="244" y="-191" type="curve" smooth="yes"/>
      <point x="187" y="-191"/>
      <point x="139" y="-178"/>
      <point x="101" y="-158" type="curve"/>
      <point x="124" y="-101" type="line"/>
      <point x="163" y="-119"/>
      <point x="188" y="-127"/>
      <point x="220" y="-127" type="curve" smooth="yes"/>
      <point x="243" y="-127"/>
      <point x="251" y="-119"/>
      <point x="251" y="-106" type="curve" smooth="yes"/>
      <point x="251" y="-94"/>
      <point x="243" y="-89"/>
      <point x="233" y="-89" type="curve" smooth="yes"/>
      <point x="222" y="-89"/>
      <point x="213" y="-93"/>
      <point x="205" y="-100" type="curve"/>
      <point x="162" y="-78" type="line"/>
      <point x="189" y="-6" type="line"/>
      <point x="84" y="14"/>
      <point x="13" y="92"/>
      <point x="13" y="262" type="curve" smooth="yes"/>
      <point x="13" y="456"/>
      <point x="103" y="536"/>
      <point x="246" y="536" type="curve" smooth="yes"/>
      <point x="371" y="536"/>
      <point x="436" y="460"/>
      <point x="457" y="337" type="curve"/>
      <point x="276" y="298" type="line"/>
      <point x="273" y="367"/>
      <point x="264" y="383"/>
      <point x="248" y="383" type="curve" smooth="yes"/>
      <point x="229" y="383"/>
      <point x="220" y="357"/>
      <point x="220" y="262" type="curve" smooth="yes"/>
      <point x="220" y="167"/>
      <point x="228" y="142"/>
      <point x="250" y="142" type="curve" smooth="yes"/>
      <point x="264" y="142"/>
      <point x="276" y="157"/>
      <point x="280" y="225" type="curve"/>
      <point x="456" y="179" type="line"/>
      <point x="433" y="57"/>
      <point x="363" y="-9"/>
      <point x="252" y="-11" type="curve"/>
      <point x="243" y="-36" type="line"/>
      <point x="254" y="-32"/>
      <point x="269" y="-30"/>
      <point x="284" y="-30" type="curve" smooth="yes"/>
      <point x="325" y="-30"/>
      <point x="362" y="-51"/>
      <point x="362" y="-106" type="curve" smooth="yes"/>
      <point x="362" y="-166"/>
      <point x="309" y="-191"/>
    </contour>
  </outline>
</glyph>
<glyph name="eth" format="1">
  <advance width="498"/>
  <unicode hex="00F0"/>
  <outline>
    <contour>
      <point x="248" y="-11" type="curve" smooth="yes"/>
      <point x="116" y="-11"/>
      <point x="13" y="55"/>
      <point x="13" y="241" type="curve" smooth="yes"/>
      <point x="13" y="387"/>
      <point x="78" y="466"/>
      <point x="186" y="466" type="curve" smooth="yes"/>
      <point x="232" y="466"/>
      <point x="275" y="448"/>
      <point x="297" y="423" type="curve"/>
      <point x="272" y="494"/>
      <point x="209" y="548"/>
      <point x="115" y="555" type="curve"/>
      <point x="115" y="712" type="line"/>
      <point x="183" y="711"/>
      <point x="245" y="696"/>
      <point x="296" y="668" type="curve"/>
      <point x="333" y="708" type="line"/>
      <point x="439" y="625" type="line"/>
      <point x="398" y="583" type="line"/>
      <point x="461" y="502"/>
      <point x="485" y="385"/>
      <point x="485" y="258" type="curve" smooth="yes"/>
      <point x="485" y="53"/>
      <point x="386" y="-11"/>
    </contour>
    <contour>
      <point x="250" y="140" type="curve" smooth="yes"/>
      <point x="270" y="140"/>
      <point x="279" y="161"/>
      <point x="279" y="241" type="curve" smooth="yes"/>
      <point x="279" y="298"/>
      <point x="270" y="316"/>
      <point x="249" y="316" type="curve" smooth="yes"/>
      <point x="229" y="316"/>
      <point x="220" y="298"/>
      <point x="220" y="243" type="curve" smooth="yes"/>
      <point x="220" y="162"/>
      <point x="229" y="140"/>
    </contour>
  </outline>
</glyph>
<glyph name="oslash" format="1">
  <advance width="498"/>
  <unicode hex="00F8"/>
  <outline>
    <contour>
      <point x="-8" y="-50" type="line"/>
      <point x="59" y="75" type="line"/>
      <point x="30" y="119"/>
      <point x="13" y="180"/>
      <point x="13" y="261" type="curve" smooth="yes"/>
      <point x="13" y="453"/>
      <point x="103" y="536"/>
      <point x="250" y="536" type="curve" smooth="yes"/>
      <point x="271" y="536"/>
      <point x="290" y="535"/>
      <point x="308" y="531" type="curve"/>
      <point x="332" y="575" type="line"/>
      <point x="505" y="575" type="line"/>
      <point x="438" y="450" type="line"/>
      <point x="468" y="407"/>
      <point x="485" y="345"/>
      <point x="485" y="263" type="curve" smooth="yes"/>
      <point x="485" y="67"/>
      <point x="392" y="-11"/>
      <point x="248" y="-11" type="curve" smooth="yes"/>
      <point x="228" y="-11"/>
      <point x="208" y="-9"/>
      <point x="189" y="-6" type="curve"/>
      <point x="165" y="-50" type="line"/>
    </contour>
    <contour>
      <point x="250" y="140" type="curve" smooth="yes"/>
      <point x="270" y="140"/>
      <point x="279" y="163"/>
      <point x="279" y="262" type="curve" smooth="yes"/>
      <point x="279" y="363"/>
      <point x="270" y="386"/>
      <point x="249" y="386" type="curve" smooth="yes"/>
      <point x="229" y="386"/>
      <point x="220" y="362"/>
      <point x="220" y="263" type="curve" smooth="yes"/>
      <point x="220" y="163"/>
      <point x="229" y="140"/>
    </contour>
  </outline>
</glyph>
<glyph name="Lslash" format="1">
  <advance width="488"/>
  <unicode hex="0141"/>
  <outline>
    <contour>
      <point x="50" y="0" type="line"/>
      <point x="50" y="197" type="line"/>
      <point x="12" y="177" type="line"/>
      <point x="12" y="374" type="line"/>
      <point x="50" y="394" type="line"/>
      <point x="50" y="700" type="line"/>
      <point x="279" y="700" type="line"/>
      <point x="279" y="521" type="line"/>
      <point x="352" y="561" type="line"/>
      <point x="352" y="364" type="line"/>
      <point x="279" y="324" type="line"/>
      <point x="279" y="190" type="line"/>
      <point x="471" y="190" type="line"/>
      <point x="471" y="0" type="line"/>
    </contour>
  </outline>
</glyph>
<glyph name="lslash" format="1">
  <advance width="313"/>
  <unicode hex="0142"/>
  <outline>
    <contour>
      <point x="49" y="0" type="line"/>
      <point x="49" y="193" type="line"/>
      <point x="11" y="174" type="line"/>
      <point x="11" y="376" type="line"/>
      <point x="49" y="395" type="line"/>
      <point x="49" y="665" type="line"/>
      <point x="264" y="732" type="line"/>
      <point x="264" y="506" type="line"/>
      <point x="302" y="525" type="line"/>
      <point x="302" y="323" type="line"/>
      <point x="264" y="304" type="line"/>
      <point x="264" y="0" type="line"/>
    </contour>
  </outline>
</glyph>
<glyph name="OE" format="1">
  <advance width="883"/>
  <unicode hex="0152"/>
  <outline>
    <contour>
      <point x="296" y="-11" type="curve" smooth="yes"/>
      <point x="132" y="-11"/>
      <point x="18" y="79"/>
      <point x="18" y="350" type="curve" smooth="yes"/>
      <point x="18" y="621"/>
      <point x="132" y="711"/>
      <point x="296" y="711" type="curve" smooth="yes"/>
      <point x="386" y="711"/>
      <point x="439" y="664"/>
      <point x="455" y="635" type="curve"/>
      <point x="455" y="700" type="line"/>
      <point x="862" y="700" type="line"/>
      <point x="862" y="525" type="line"/>
      <point x="642" y="525" type="line"/>
      <point x="642" y="446" type="line"/>
      <point x="803" y="446" type="line"/>
      <point x="803" y="274" type="line"/>
      <point x="642" y="274" type="line"/>
      <point x="642" y="175" type="line"/>
      <point x="864" y="175" type="line"/>
      <point x="864" y="0" type="line"/>
      <point x="455" y="0" type="line"/>
      <point x="455" y="65" type="line"/>
      <point x="439" y="36"/>
      <point x="386" y="-11"/>
    </contour>
    <contour>
      <point x="296" y="169" type="curve" smooth="yes"/>
      <point x="322" y="169"/>
      <point x="342" y="188"/>
      <point x="342" y="350" type="curve" smooth="yes"/>
      <point x="342" y="512"/>
      <point x="322" y="531"/>
      <point x="296" y="531" type="curve" smooth="yes"/>
      <point x="270" y="531"/>
      <point x="249" y="512"/>
      <point x="249" y="350" type="curve" smooth="yes"/>
      <point x="249" y="188"/>
      <point x="270" y="169"/>
    </contour>
  </outline>
</glyph>
<glyph name="oe" format="1">
  <advance width="745"/>
  <unicode hex="0153"/>
  <outline>
    <contour>
      <point x="248" y="-11" type="curve" smooth="yes"/>
      <point x="108" y="-11"/>
      <point x="13" y="65"/>
      <point x="13" y="261" type="curve" smooth="yes"/>
      <point x="13" y="453"/>
      <point x="103" y="536"/>
      <point x="250" y="536" type="curve" smooth="yes"/>
      <point x="306" y="536"/>
      <point x="349" y="521"/>
      <point x="384" y="490" type="curve"/>
      <point x="419" y="521"/>
      <point x="466" y="536"/>
      <point x="516" y="536" type="curve" smooth="yes"/>
      <point x="642" y="536"/>
      <point x="734" y="466"/>
      <point x="734" y="235" type="curve" smooth="yes"/>
      <point x="734" y="231"/>
      <point x="734" y="213"/>
      <point x="734" y="210" type="curve"/>
      <point x="474" y="210" type="line"/>
      <point x="480" y="143"/>
      <point x="498" y="132"/>
      <point x="518" y="132" type="curve" smooth="yes"/>
      <point x="544" y="132"/>
      <point x="556" y="157"/>
      <point x="561" y="183" type="curve"/>
      <point x="726" y="139" type="line"/>
      <point x="700" y="57"/>
      <point x="638" y="-11"/>
      <point x="517" y="-11" type="curve" smooth="yes"/>
      <point x="438" y="-11"/>
      <point x="404" y="13"/>
      <point x="383" y="36" type="curve"/>
      <point x="347" y="5"/>
      <point x="304" y="-11"/>
    </contour>
    <contour>
      <point x="474" y="321" type="curve"/>
      <point x="549" y="321" type="line"/>
      <point x="546" y="384"/>
      <point x="536" y="399"/>
      <point x="512" y="399" type="curve" smooth="yes"/>
      <point x="497" y="399"/>
      <point x="479" y="394"/>
    </contour>
    <contour>
      <point x="250" y="140" type="curve" smooth="yes"/>
      <point x="270" y="140"/>
      <point x="279" y="163"/>
      <point x="279" y="262" type="curve" smooth="yes"/>
      <point x="279" y="363"/>
      <point x="270" y="386"/>
      <point x="249" y="386" type="curve" smooth="yes"/>
      <point x="229" y="386"/>
      <point x="220" y="362"/>
      <point x="220" y="263" type="curve" smooth="yes"/>
      <point x="220" y="163"/>
      <point x="229" y="140"/>
    </contour>
  </outline>
</glyph>
<glyph name="florin" format="1">
  <advance width="380"/>
  <unicode hex="0192"/>
  <outline>
    <contour>
      <point x="64" y="-193" type="line"/>
      <point x="64" y="362" type="line"/>
      <point x="16" y="362" type="line"/>
      <point x="16" y="512" type="line"/>
      <point x="64" y="512" type="line"/>
      <point x="64" y="549" type="line" smooth="yes"/>
      <point x="64" y="657"/>
      <point x="116" y="711"/>
      <point x="226" y="711" type="curve" smooth="yes"/>
      <point x="290" y="711"/>
      <point x="333" y="703"/>
      <point x="362" y="693" type="curve"/>
      <point x="362" y="558" type="line"/>
      <point x="344" y="565"/>
      <point x="329" y="567"/>
      <point x="314" y="567" type="curve" smooth="yes"/>
      <point x="291" y="567"/>
      <point x="280" y="559"/>
      <point x="280" y="537" type="curve" smooth="yes"/>
      <point x="280" y="512" type="line"/>
      <point x="351" y="512" type="line"/>
      <point x="351" y="362" type="line"/>
      <point x="284" y="362" type="line"/>
      <point x="284" y="-125" type="line"/>
    </contour>
  </outline>
</glyph>
<glyph name="circumflex" format="1">
  <advance width="415"/>
  <unicode hex="02C6"/>
  <outline>
    <contour>
      <point x="-6" y="557" type="line"/>
      <point x="109" y="747" type="line"/>
      <point x="307" y="747" type="line"/>
      <point x="422" y="557" type="line"/>
      <point x="249" y="557" type="line"/>
      <point x="206" y="618" type="line"/>
      <point x="163" y="557" type="line"/>
    </contour>
  </outline>
</glyph>
<glyph name="breve" format="1">
  <advance width="415"/>
  <unicode hex="02D8"/>
  <outline>
    <contour>
      <point x="208" y="550" type="curve" smooth="yes"/>
      <point x="88" y="550"/>
      <point x="32" y="600"/>
      <point x="16" y="737" type="curve"/>
      <point x="166" y="737" type="line"/>
      <point x="172" y="689"/>
      <point x="183" y="673"/>
      <point x="209" y="673" type="curve" smooth="yes"/>
      <point x="234" y="673"/>
      <point x="245" y="690"/>
      <point x="252" y="737" type="curve"/>
      <point x="400" y="737" type="line"/>
      <point x="385" y="600"/>
      <point x="329" y="550"/>
    </contour>
  </outline>
</glyph>
<glyph name="dotaccent" format="1">
  <advance width="415"/>
  <unicode hex="02D9"/>
  <outline>
    <contour>
      <point x="207" y="550" type="curve" smooth="yes"/>
      <point x="150" y="550"/>
      <point x="99" y="600"/>
      <point x="99" y="656" type="curve" smooth="yes"/>
      <point x="99" y="717"/>
      <point x="150" y="764"/>
      <point x="207" y="764" type="curve" smooth="yes"/>
      <point x="266" y="764"/>
      <point x="316" y="717"/>
      <point x="316" y="656" type="curve" smooth="yes"/>
      <point x="316" y="600"/>
      <point x="266" y="550"/>
    </contour>
  </outline>
</glyph>
<glyph name="ring" format="1">
  <advance width="415"/>
  <unicode hex="02DA"/>
  <outline>
    <contour>
      <point x="208" y="555" type="curve" smooth="yes"/>
      <point x="136" y="555"/>
      <point x="81" y="609"/>
      <point x="81" y="678" type="curve" smooth="yes"/>
      <point x="81" y="748"/>
      <point x="136" y="802"/>
      <point x="208" y="802" type="curve" smooth="yes"/>
      <point x="279" y="802"/>
      <point x="334" y="748"/>
      <point x="334" y="678" type="curve" smooth="yes"/>
      <point x="334" y="609"/>
      <point x="279" y="555"/>
    </contour>
    <contour>
      <point x="208" y="631" type="curve" smooth="yes"/>
      <point x="234" y="631"/>
      <point x="251" y="651"/>
      <point x="251" y="678" type="curve" smooth="yes"/>
      <point x="251" y="706"/>
      <point x="234" y="727"/>
      <point x="208" y="727" type="curve" smooth="yes"/>
      <point x="181" y="727"/>
      <point x="165" y="706"/>
      <point x="165" y="678" type="curve" smooth="yes"/>
      <point x="165" y="651"/>
      <point x="181" y="631"/>
    </contour>
  </outline>
</glyph>
<glyph name="ogonek" format="1">
  <advance width="415"/>
  <unicode hex="02DB"/>
  <outline>
    <contour>
      <point x="215" y="-188" type="curve" smooth="yes"/>
      <point x="148" y="-188"/>
      <point x="101" y="-163"/>
      <point x="101" y="-114" type="curve" smooth="yes"/>
      <point x="101" y="-68"/>
      <point x="131" y="-26"/>
      <point x="168" y="6" type="curve"/>
      <point x="253" y="6" type="line"/>
      <point x="237" y="-26"/>
      <point x="227" y="-55"/>
      <point x="227" y="-81" type="curve" smooth="yes"/>
      <point x="227" y="-98"/>
      <point x="236" y="-111"/>
      <point x="260" y="-111" type="curve" smooth="yes"/>
      <point x="277" y="-111"/>
      <point x="296" y="-107"/>
      <point x="324" y="-97" type="curve"/>
      <point x="339" y="-154" type="line"/>
      <point x="300" y="-176"/>
      <point x="260" y="-188"/>
    </contour>
  </outline>
</glyph>
<glyph name="tilde" format="1">
  <advance width="415"/>
  <unicode hex="02DC"/>
  <outline>
    <contour>
      <point x="285" y="555" type="curve" smooth="yes"/>
      <point x="248" y="555"/>
      <point x="223" y="564"/>
      <point x="197" y="580" type="curve" smooth="yes"/>
      <point x="173" y="594"/>
      <point x="158" y="607"/>
      <point x="148" y="607" type="curve" smooth="yes"/>
      <point x="137" y="607"/>
      <point x="130" y="600"/>
      <point x="130" y="558" type="curve"/>
      <point x="-7" y="558" type="line"/>
      <point x="-7" y="563"/>
      <point x="-7" y="574"/>
      <point x="-7" y="579" type="curve" smooth="yes"/>
      <point x="-5" y="697"/>
      <point x="42" y="750"/>
      <point x="130" y="750" type="curve" smooth="yes"/>
      <point x="166" y="750"/>
      <point x="191" y="741"/>
      <point x="217" y="725" type="curve" smooth="yes"/>
      <point x="241" y="711"/>
      <point x="256" y="698"/>
      <point x="267" y="698" type="curve" smooth="yes"/>
      <point x="278" y="698"/>
      <point x="285" y="705"/>
      <point x="285" y="747" type="curve"/>
      <point x="421" y="747" type="line"/>
      <point x="421" y="741"/>
      <point x="421" y="724"/>
      <point x="421" y="717" type="curve" smooth="yes"/>
      <point x="418" y="603"/>
      <point x="372" y="555"/>
    </contour>
  </outline>
</glyph>
<glyph name="hungarumlaut" format="1">
  <advance width="415"/>
  <unicode hex="02DD"/>
  <outline>
    <contour>
      <point x="192" y="557" type="line"/>
      <point x="268" y="745" type="line"/>
      <point x="477" y="745" type="line"/>
      <point x="328" y="557" type="line"/>
    </contour>
    <contour>
      <point x="-30" y="557" type="line"/>
      <point x="46" y="745" type="line"/>
      <point x="254" y="745" type="line"/>
      <point x="105" y="557" type="line"/>
    </contour>
  </outline>
</glyph>
<glyph name="endash" format="1">
  <advance width="476"/>
  <unicode hex="2013"/>
  <outline>
    <contour>
      <point x="19" y="250" type="line"/>
      <point x="19" y="456" type="line"/>
      <point x="457" y="456" type="line"/>
      <point x="457" y="250" type="line"/>
    </contour>
  </outline>
</glyph>
<glyph name="emdash" format="1">
  <advance width="570"/>
  <unicode hex="2014"/>
  <outline>
    <contour>
      <point x="19" y="250" type="line"/>
      <point x="19" y="456" type="line"/>
      <point x="551" y="456" type="line"/>
      <point x="551" y="250" type="line"/>
    </contour>
  </outline>
</glyph>
<glyph name="quoteleft" format="1">
  <advance width="291"/>
  <unicode hex="2018"/>
  <unicode hex="02BB"/>
  <outline>
    <contour>
      <point x="10" y="374" type="line"/>
      <point x="122" y="700" type="line"/>
      <point x="272" y="700" type="line"/>
      <point x="255" y="374" type="line"/>
    </contour>
  </outline>
</glyph>
<glyph name="quoteright" format="1">
  <advance width="291"/>
  <unicode hex="2019"/>
  <unicode hex="02BC"/>
  <outline>
    <contour>
      <point x="20" y="374" type="line"/>
      <point x="37" y="700" type="line"/>
      <point x="281" y="700" type="line"/>
      <point x="169" y="374" type="line"/>
    </contour>
  </outline>
</glyph>
<glyph name="quotesinglbase" format="1">
  <advance width="291"/>
  <unicode hex="201A"/>
  <outline>
    <contour>
      <point x="16" y="-94" type="line"/>
      <point x="32" y="231" type="line"/>
      <point x="278" y="231" type="line"/>
      <point x="166" y="-94" type="line"/>
    </contour>
  </outline>
</glyph>
<glyph name="quotedblleft" format="1">
  <advance width="553"/>
  <unicode hex="201C"/>
  <outline>
    <contour>
      <point x="277" y="374" type="line"/>
      <point x="389" y="700" type="line"/>
      <point x="533" y="700" type="line"/>
      <point x="516" y="374" type="line"/>
    </contour>
    <contour>
      <point x="10" y="374" type="line"/>
      <point x="122" y="700" type="line"/>
      <point x="267" y="700" type="line"/>
      <point x="250" y="374" type="line"/>
    </contour>
  </outline>
</glyph>
<glyph name="quotedblright" format="1">
  <advance width="553"/>
  <unicode hex="201D"/>
  <outline>
    <contour>
      <point x="286" y="374" type="line"/>
      <point x="302" y="700" type="line"/>
      <point x="543" y="700" type="line"/>
      <point x="431" y="374" type="line"/>
    </contour>
    <contour>
      <point x="20" y="374" type="line"/>
      <point x="37" y="700" type="line"/>
      <point x="276" y="700" type="line"/>
      <point x="164" y="374" type="line"/>
    </contour>
  </outline>
</glyph>
<glyph name="quotedblbase" format="1">
  <advance width="551"/>
  <unicode hex="201E"/>
  <outline>
    <contour>
      <point x="283" y="-94" type="line"/>
      <point x="299" y="231" type="line"/>
      <point x="538" y="231" type="line"/>
      <point x="427" y="-94" type="line"/>
    </contour>
    <contour>
      <point x="16" y="-94" type="line"/>
      <point x="32" y="231" type="line"/>
      <point x="273" y="231" type="line"/>
      <point x="161" y="-94" type="line"/>
    </contour>
  </outline>
</glyph>
<glyph name="dagger" format="1">
  <advance width="470"/>
  <unicode hex="2020"/>
  <outline>
    <contour>
      <point x="128" y="-100" type="line"/>
      <point x="128" y="323" type="line"/>
      <point x="16" y="323" type="line"/>
      <point x="16" y="525" type="line"/>
      <point x="128" y="525" type="line"/>
      <point x="128" y="700" type="line"/>
      <point x="343" y="700" type="line"/>
      <point x="343" y="525" type="line"/>
      <point x="454" y="525" type="line"/>
      <point x="454" y="323" type="line"/>
      <point x="343" y="323" type="line"/>
      <point x="343" y="-100" type="line"/>
    </contour>
  </outline>
</glyph>
<glyph name="daggerdbl" format="1">
  <advance width="470"/>
  <unicode hex="2021"/>
  <outline>
    <contour>
      <point x="132" y="-100" type="line"/>
      <point x="132" y="76" type="line"/>
      <point x="16" y="76" type="line"/>
      <point x="16" y="264" type="line"/>
      <point x="132" y="264" type="line"/>
      <point x="132" y="337" type="line"/>
      <point x="16" y="337" type="line"/>
      <point x="16" y="525" type="line"/>
      <point x="132" y="525" type="line"/>
      <point x="132" y="700" type="line"/>
      <point x="338" y="700" type="line"/>
      <point x="338" y="525" type="line"/>
      <point x="454" y="525" type="line"/>
      <point x="454" y="337" type="line"/>
      <point x="338" y="337" type="line"/>
      <point x="338" y="264" type="line"/>
      <point x="454" y="264" type="line"/>
      <point x="454" y="76" type="line"/>
      <point x="338" y="76" type="line"/>
      <point x="338" y="-100" type="line"/>
    </contour>
  </outline>
</glyph>
<glyph name="ellipsis" format="1">
  <advance width="864"/>
  <unicode hex="2026"/>
  <outline>
    <contour>
      <point x="717" y="-11" type="curve" smooth="yes"/>
      <point x="641" y="-11"/>
      <point x="591" y="41"/>
      <point x="591" y="118" type="curve" smooth="yes"/>
      <point x="591" y="196"/>
      <point x="641" y="245"/>
      <point x="717" y="245" type="curve" smooth="yes"/>
      <point x="793" y="245"/>
      <point x="844" y="196"/>
      <point x="844" y="118" type="curve" smooth="yes"/>
      <point x="844" y="41"/>
      <point x="793" y="-11"/>
    </contour>
    <contour>
      <point x="432" y="-11" type="curve" smooth="yes"/>
      <point x="356" y="-11"/>
      <point x="306" y="41"/>
      <point x="306" y="118" type="curve" smooth="yes"/>
      <point x="306" y="196"/>
      <point x="356" y="245"/>
      <point x="432" y="245" type="curve" smooth="yes"/>
      <point x="508" y="245"/>
      <point x="559" y="196"/>
      <point x="559" y="118" type="curve" smooth="yes"/>
      <point x="559" y="41"/>
      <point x="508" y="-11"/>
    </contour>
    <contour>
      <point x="147" y="-11" type="curve" smooth="yes"/>
      <point x="71" y="-11"/>
      <point x="21" y="41"/>
      <point x="21" y="118" type="curve" smooth="yes"/>
      <point x="21" y="196"/>
      <point x="71" y="245"/>
      <point x="147" y="245" type="curve" smooth="yes"/>
      <point x="223" y="245"/>
      <point x="274" y="196"/>
      <point x="274" y="118" type="curve" smooth="yes"/>
      <point x="274" y="41"/>
      <point x="223" y="-11"/>
    </contour>
  </outline>
</glyph>
<glyph name="perthousand" format="1">
  <advance width="1354"/>
  <unicode hex="2030"/>
  <outline>
    <contour>
      <point x="202" y="275" type="curve" smooth="yes"/>
      <point x="92" y="275"/>
      <point x="15" y="342"/>
      <point x="15" y="492" type="curve" smooth="yes"/>
      <point x="15" y="641"/>
      <point x="95" y="711"/>
      <point x="204" y="711" type="curve" smooth="yes"/>
      <point x="314" y="711"/>
      <point x="392" y="644"/>
      <point x="392" y="494" type="curve" smooth="yes"/>
      <point x="392" y="344"/>
      <point x="314" y="275"/>
    </contour>
    <contour>
      <point x="199" y="0" type="line"/>
      <point x="577" y="700" type="line"/>
      <point x="757" y="700" type="line"/>
      <point x="379" y="0" type="line"/>
    </contour>
    <contour>
      <point x="1150" y="-11" type="curve" smooth="yes"/>
      <point x="1040" y="-11"/>
      <point x="963" y="56"/>
      <point x="963" y="206" type="curve" smooth="yes"/>
      <point x="963" y="355"/>
      <point x="1043" y="425"/>
      <point x="1152" y="425" type="curve" smooth="yes"/>
      <point x="1262" y="425"/>
      <point x="1340" y="358"/>
      <point x="1340" y="208" type="curve" smooth="yes"/>
      <point x="1340" y="58"/>
      <point x="1262" y="-11"/>
    </contour>
    <contour>
      <point x="750" y="-11" type="curve" smooth="yes"/>
      <point x="639" y="-11"/>
      <point x="562" y="56"/>
      <point x="562" y="206" type="curve" smooth="yes"/>
      <point x="562" y="355"/>
      <point x="642" y="425"/>
      <point x="752" y="425" type="curve" smooth="yes"/>
      <point x="861" y="425"/>
      <point x="939" y="358"/>
      <point x="939" y="208" type="curve" smooth="yes"/>
      <point x="939" y="58"/>
      <point x="861" y="-11"/>
    </contour>
    <contour>
      <point x="204" y="399" type="curve" smooth="yes"/>
      <point x="222" y="399"/>
      <point x="229" y="414"/>
      <point x="229" y="492" type="curve" smooth="yes"/>
      <point x="229" y="571"/>
      <point x="222" y="587"/>
      <point x="203" y="587" type="curve" smooth="yes"/>
      <point x="184" y="587"/>
      <point x="177" y="572"/>
      <point x="177" y="494" type="curve" smooth="yes"/>
      <point x="177" y="415"/>
      <point x="185" y="399"/>
    </contour>
    <contour>
      <point x="1152" y="113" type="curve" smooth="yes"/>
      <point x="1170" y="113"/>
      <point x="1177" y="128"/>
      <point x="1177" y="206" type="curve" smooth="yes"/>
      <point x="1177" y="285"/>
      <point x="1170" y="301"/>
      <point x="1151" y="301" type="curve" smooth="yes"/>
      <point x="1132" y="301"/>
      <point x="1125" y="286"/>
      <point x="1125" y="208" type="curve" smooth="yes"/>
      <point x="1125" y="129"/>
      <point x="1133" y="113"/>
    </contour>
    <contour>
      <point x="751" y="113" type="curve" smooth="yes"/>
      <point x="770" y="113"/>
      <point x="777" y="128"/>
      <point x="777" y="206" type="curve" smooth="yes"/>
      <point x="777" y="285"/>
      <point x="769" y="301"/>
      <point x="750" y="301" type="curve" smooth="yes"/>
      <point x="732" y="301"/>
      <point x="725" y="286"/>
      <point x="725" y="208" type="curve" smooth="yes"/>
      <point x="725" y="129"/>
      <point x="732" y="113"/>
    </contour>
  </outline>
</glyph>
<glyph name="guilsinglleft" format="1">
  <advance width="328"/>
  <unicode hex="2039"/>
  <outline>
    <contour>
      <point x="85" y="0" type="line"/>
      <point x="13" y="263" type="line"/>
      <point x="85" y="525" type="line"/>
      <point x="311" y="525" type="line"/>
      <point x="240" y="263" type="line"/>
      <point x="311" y="0" type="line"/>
    </contour>
  </outline>
</glyph>
<glyph name="guilsinglright" format="1">
  <advance width="328"/>
  <unicode hex="203A"/>
  <outline>
    <contour>
      <point x="17" y="0" type="line"/>
      <point x="88" y="263" type="line"/>
      <point x="17" y="525" type="line"/>
      <point x="243" y="525" type="line"/>
      <point x="315" y="263" type="line"/>
      <point x="243" y="0" type="line"/>
    </contour>
  </outline>
</glyph>
<glyph name="fraction" format="1">
  <advance width="465"/>
  <unicode hex="2044"/>
  <outline>
    <contour>
      <point x="-73" y="0" type="line"/>
      <point x="290" y="700" type="line"/>
      <point x="538" y="700" type="line"/>
      <point x="176" y="0" type="line"/>
    </contour>
  </outline>
</glyph>
<glyph name="Euro" format="1">
  <advance width="526"/>
  <unicode hex="20AC"/>
  <outline>
    <contour>
      <point x="235" y="458" type="curve"/>
      <point x="372" y="458" type="line"/>
      <point x="372" y="364" type="line"/>
      <point x="229" y="364" type="line"/>
      <point x="229" y="359"/>
      <point x="229" y="355"/>
      <point x="229" y="350" type="curve" smooth="yes"/>
      <point x="229" y="346"/>
      <point x="229" y="343"/>
      <point x="229" y="339" type="curve"/>
      <point x="372" y="339" type="line"/>
      <point x="372" y="245" type="line"/>
      <point x="235" y="245" type="line"/>
      <point x="244" y="180"/>
      <point x="264" y="161"/>
      <point x="295" y="161" type="curve" smooth="yes"/>
      <point x="333" y="161"/>
      <point x="360" y="189"/>
      <point x="396" y="233" type="curve"/>
      <point x="517" y="106" type="line"/>
      <point x="467" y="42"/>
      <point x="402" y="-11"/>
      <point x="287" y="-11" type="curve" smooth="yes"/>
      <point x="134" y="-11"/>
      <point x="18" y="80"/>
      <point x="18" y="350" type="curve" smooth="yes"/>
      <point x="18" y="620"/>
      <point x="134" y="711"/>
      <point x="287" y="711" type="curve" smooth="yes"/>
      <point x="387" y="711"/>
      <point x="454" y="683"/>
      <point x="517" y="595" type="curve"/>
      <point x="387" y="472" type="line"/>
      <point x="365" y="504"/>
      <point x="334" y="539"/>
      <point x="297" y="539" type="curve" smooth="yes"/>
      <point x="268" y="539"/>
      <point x="245" y="528"/>
    </contour>
  </outline>
</glyph>
<glyph name="uni2117" format="1">
  <advance width="652"/>
  <unicode hex="2117"/>
  <outline>
    <contour>
      <point x="325" y="-11" type="curve" smooth="yes"/>
      <point x="131" y="-11"/>
      <point x="26" y="129"/>
      <point x="26" y="349" type="curve" smooth="yes"/>
      <point x="26" y="570"/>
      <point x="132" y="711"/>
      <point x="326" y="711" type="curve" smooth="yes"/>
      <point x="520" y="711"/>
      <point x="627" y="571"/>
      <point x="627" y="351" type="curve" smooth="yes"/>
      <point x="627" y="130"/>
      <point x="519" y="-11"/>
    </contour>
    <contour>
      <point x="326" y="54" type="curve" smooth="yes"/>
      <point x="474" y="54"/>
      <point x="555" y="155"/>
      <point x="555" y="349" type="curve" smooth="yes"/>
      <point x="555" y="543"/>
      <point x="472" y="646"/>
      <point x="325" y="646" type="curve" smooth="yes"/>
      <point x="178" y="646"/>
      <point x="98" y="544"/>
      <point x="98" y="351" type="curve" smooth="yes"/>
      <point x="98" y="157"/>
      <point x="179" y="54"/>
    </contour>
    <contour>
      <point x="201" y="154" type="line"/>
      <point x="201" y="546" type="line"/>
      <point x="341" y="546" type="line" smooth="yes"/>
      <point x="431" y="546"/>
      <point x="486" y="509"/>
      <point x="486" y="410" type="curve" smooth="yes"/>
      <point x="486" y="311"/>
      <point x="431" y="273"/>
      <point x="341" y="273" type="curve" smooth="yes"/>
      <point x="329" y="273" type="line"/>
      <point x="329" y="154" type="line"/>
    </contour>
    <contour>
      <point x="326" y="366" type="line"/>
      <point x="334" y="366" type="line" smooth="yes"/>
      <point x="355" y="366"/>
      <point x="363" y="375"/>
      <point x="363" y="409" type="curve" smooth="yes"/>
      <point x="363" y="442"/>
      <point x="355" y="451"/>
      <point x="334" y="451" type="curve" smooth="yes"/>
      <point x="326" y="451" type="line"/>
    </contour>
  </outline>
</glyph>
<glyph name="trademark" format="1">
  <advance width="706"/>
  <unicode hex="2122"/>
  <outline>
    <contour>
      <point x="80" y="305" type="line"/>
      <point x="80" y="591" type="line"/>
      <point x="8" y="591" type="line"/>
      <point x="8" y="700" type="line"/>
      <point x="290" y="700" type="line"/>
      <point x="290" y="591" type="line"/>
      <point x="218" y="591" type="line"/>
      <point x="218" y="305" type="line"/>
    </contour>
    <contour>
      <point x="314" y="305" type="line"/>
      <point x="314" y="700" type="line"/>
      <point x="461" y="700" type="line"/>
      <point x="478" y="631" type="line" smooth="yes"/>
      <point x="486" y="598"/>
      <point x="494" y="556"/>
      <point x="497" y="532" type="curve"/>
      <point x="501" y="556"/>
      <point x="509" y="598"/>
      <point x="517" y="631" type="curve" smooth="yes"/>
      <point x="533" y="700" type="line"/>
      <point x="680" y="700" type="line"/>
      <point x="680" y="305" type="line"/>
      <point x="554" y="305" type="line"/>
      <point x="554" y="418" type="line" smooth="yes"/>
      <point x="554" y="440"/>
      <point x="555" y="472"/>
      <point x="555" y="491" type="curve"/>
      <point x="550" y="461"/>
      <point x="543" y="419"/>
      <point x="534" y="388" type="curve" smooth="yes"/>
      <point x="510" y="302" type="line"/>
      <point x="482" y="302" type="line"/>
      <point x="459" y="388" type="line" smooth="yes"/>
      <point x="451" y="419"/>
      <point x="443" y="461"/>
      <point x="437" y="491" type="curve"/>
      <point x="438" y="473"/>
      <point x="438" y="440"/>
      <point x="438" y="418" type="curve" smooth="yes"/>
      <point x="438" y="305" type="line"/>
    </contour>
  </outline>
</glyph>
<glyph name="arrowleft" format="1">
  <advance width="525"/>
  <unicode hex="2190"/>
  <outline>
    <contour>
      <point x="257" y="179" type="curve" smooth="yes"/>
      <point x="239" y="167"/>
      <point x="215" y="168"/>
      <point x="188" y="194" type="curve" smooth="yes"/>
      <point x="13" y="358" type="line"/>
      <point x="188" y="522" type="line" smooth="yes"/>
      <point x="215" y="547"/>
      <point x="239" y="549"/>
      <point x="257" y="537" type="curve" smooth="yes"/>
      <point x="271" y="527"/>
      <point x="273" y="509"/>
      <point x="271" y="489" type="curve"/>
      <point x="271" y="485"/>
      <point x="267" y="467"/>
      <point x="266" y="463" type="curve"/>
      <point x="507" y="463" type="line"/>
      <point x="507" y="253" type="line"/>
      <point x="266" y="253" type="line"/>
      <point x="267" y="249"/>
      <point x="271" y="231"/>
      <point x="271" y="227" type="curve"/>
      <point x="273" y="207"/>
      <point x="271" y="189"/>
    </contour>
  </outline>
</glyph>
<glyph name="arrowup" format="1">
  <advance width="383"/>
  <unicode hex="2191"/>
  <outline>
    <contour>
      <point x="87" y="0" type="line"/>
      <point x="87" y="477" type="line"/>
      <point x="82" y="476"/>
      <point x="66" y="472"/>
      <point x="62" y="472" type="curve"/>
      <point x="41" y="470"/>
      <point x="22" y="472"/>
      <point x="12" y="487" type="curve" smooth="yes"/>
      <point x="0" y="504"/>
      <point x="3" y="528"/>
      <point x="28" y="555" type="curve" smooth="yes"/>
      <point x="191" y="731" type="line"/>
      <point x="355" y="555" type="line" smooth="yes"/>
      <point x="380" y="528"/>
      <point x="382" y="504"/>
      <point x="370" y="487" type="curve" smooth="yes"/>
      <point x="361" y="473"/>
      <point x="343" y="470"/>
      <point x="323" y="473" type="curve" smooth="yes"/>
      <point x="319" y="472"/>
      <point x="301" y="476"/>
      <point x="296" y="477" type="curve"/>
      <point x="296" y="0" type="line"/>
    </contour>
  </outline>
</glyph>
<glyph name="arrowright" format="1">
  <advance width="525"/>
  <unicode hex="2192"/>
  <outline>
    <contour>
      <point x="268" y="179" type="curve" smooth="yes"/>
      <point x="254" y="189"/>
      <point x="251" y="207"/>
      <point x="254" y="228" type="curve"/>
      <point x="254" y="232"/>
      <point x="258" y="249"/>
      <point x="259" y="253" type="curve"/>
      <point x="18" y="253" type="line"/>
      <point x="18" y="463" type="line"/>
      <point x="259" y="463" type="line"/>
      <point x="258" y="467"/>
      <point x="254" y="484"/>
      <point x="254" y="488" type="curve"/>
      <point x="251" y="509"/>
      <point x="254" y="527"/>
      <point x="268" y="537" type="curve" smooth="yes"/>
      <point x="286" y="549"/>
      <point x="310" y="547"/>
      <point x="337" y="522" type="curve" smooth="yes"/>
      <point x="512" y="358" type="line"/>
      <point x="337" y="194" type="line" smooth="yes"/>
      <point x="310" y="168"/>
      <point x="286" y="167"/>
    </contour>
  </outline>
</glyph>
<glyph name="arrowdown" format="1">
  <advance width="383"/>
  <unicode hex="2193"/>
  <outline>
    <contour>
      <point x="192" y="-31" type="line"/>
      <point x="28" y="145" type="line" smooth="yes"/>
      <point x="3" y="172"/>
      <point x="1" y="196"/>
      <point x="13" y="213" type="curve" smooth="yes"/>
      <point x="23" y="228"/>
      <point x="42" y="230"/>
      <point x="63" y="227" type="curve"/>
      <point x="66" y="227"/>
      <point x="83" y="223"/>
      <point x="87" y="223" type="curve"/>
      <point x="87" y="700" type="line"/>
      <point x="296" y="700" type="line"/>
      <point x="296" y="223" type="line"/>
      <point x="301" y="224"/>
      <point x="319" y="228"/>
      <point x="323" y="228" type="curve"/>
      <point x="343" y="230"/>
      <point x="361" y="228"/>
      <point x="371" y="213" type="curve" smooth="yes"/>
      <point x="383" y="196"/>
      <point x="380" y="173"/>
      <point x="355" y="145" type="curve" smooth="yes"/>
    </contour>
  </outline>
</glyph>
<glyph name="arrowboth" format="1">
  <advance width="708"/>
  <unicode hex="2194"/>
  <outline>
    <contour>
      <point x="247" y="179" type="curve" smooth="yes"/>
      <point x="229" y="167"/>
      <point x="205" y="168"/>
      <point x="178" y="194" type="curve" smooth="yes"/>
      <point x="13" y="358" type="line"/>
      <point x="178" y="522" type="line" smooth="yes"/>
      <point x="205" y="548"/>
      <point x="229" y="549"/>
      <point x="247" y="537" type="curve" smooth="yes"/>
      <point x="261" y="527"/>
      <point x="263" y="509"/>
      <point x="261" y="489" type="curve"/>
      <point x="261" y="485"/>
      <point x="257" y="468"/>
      <point x="256" y="463" type="curve"/>
      <point x="452" y="463" type="line"/>
      <point x="451" y="467"/>
      <point x="447" y="484"/>
      <point x="447" y="488" type="curve"/>
      <point x="444" y="509"/>
      <point x="447" y="527"/>
      <point x="461" y="537" type="curve" smooth="yes"/>
      <point x="479" y="549"/>
      <point x="503" y="548"/>
      <point x="530" y="522" type="curve" smooth="yes"/>
      <point x="695" y="358" type="line"/>
      <point x="530" y="194" type="line" smooth="yes"/>
      <point x="503" y="168"/>
      <point x="479" y="167"/>
      <point x="461" y="179" type="curve" smooth="yes"/>
      <point x="447" y="189"/>
      <point x="445" y="207"/>
      <point x="447" y="228" type="curve"/>
      <point x="447" y="232"/>
      <point x="451" y="249"/>
      <point x="452" y="253" type="curve"/>
      <point x="256" y="253" type="line"/>
      <point x="257" y="249"/>
      <point x="261" y="231"/>
      <point x="261" y="227" type="curve"/>
      <point x="263" y="207"/>
      <point x="261" y="189"/>
    </contour>
  </outline>
</glyph>
<glyph name="arrowupdn" format="1">
  <advance width="383"/>
  <unicode hex="2195"/>
  <outline>
    <contour>
      <point x="192" y="-19" type="line"/>
      <point x="28" y="147" type="line" smooth="yes"/>
      <point x="2" y="173"/>
      <point x="1" y="198"/>
      <point x="13" y="215" type="curve" smooth="yes"/>
      <point x="23" y="230"/>
      <point x="41" y="232"/>
      <point x="62" y="230" type="curve"/>
      <point x="66" y="229"/>
      <point x="83" y="226"/>
      <point x="87" y="225" type="curve"/>
      <point x="87" y="487" type="line"/>
      <point x="83" y="486"/>
      <point x="66" y="483"/>
      <point x="62" y="482" type="curve"/>
      <point x="41" y="480"/>
      <point x="23" y="482"/>
      <point x="13" y="497" type="curve" smooth="yes"/>
      <point x="1" y="514"/>
      <point x="2" y="539"/>
      <point x="28" y="565" type="curve" smooth="yes"/>
      <point x="192" y="731" type="line"/>
      <point x="355" y="565" type="line" smooth="yes"/>
      <point x="381" y="539"/>
      <point x="383" y="514"/>
      <point x="371" y="497" type="curve" smooth="yes"/>
      <point x="361" y="482"/>
      <point x="343" y="480"/>
      <point x="322" y="482" type="curve"/>
      <point x="318" y="482"/>
      <point x="301" y="486"/>
      <point x="296" y="487" type="curve"/>
      <point x="296" y="225" type="line"/>
      <point x="301" y="226"/>
      <point x="318" y="230"/>
      <point x="322" y="230" type="curve"/>
      <point x="342" y="232"/>
      <point x="361" y="230"/>
      <point x="371" y="215" type="curve" smooth="yes"/>
      <point x="383" y="198"/>
      <point x="381" y="173"/>
      <point x="355" y="147" type="curve" smooth="yes"/>
    </contour>
  </outline>
</glyph>
<glyph name="radical" format="1">
  <advance width="604"/>
  <unicode hex="221A"/>
  <outline>
    <contour>
      <point x="149" y="0" type="line"/>
      <point x="-4" y="354" type="line"/>
      <point x="224" y="354" type="line"/>
      <point x="224" y="354"/>
      <point x="237" y="320"/>
      <point x="240" y="308" type="curve" smooth="yes"/>
      <point x="250" y="275"/>
      <point x="260" y="229"/>
      <point x="264" y="191" type="curve"/>
      <point x="267" y="227"/>
      <point x="279" y="293"/>
      <point x="293" y="376" type="curve" smooth="yes"/>
      <point x="304" y="446"/>
      <point x="371" y="700"/>
      <point x="371" y="700" type="curve"/>
      <point x="606" y="700" type="line"/>
      <point x="395" y="0" type="line"/>
    </contour>
  </outline>
</glyph>
<glyph name="apple" format="1">
  <advance width="753"/>
  <unicode hex="F8FF"/>
  <outline>
    <contour>
      <point x="377" y="-19" type="line"/>
      <point x="242" y="130" type="line" smooth="yes"/>
      <point x="221" y="153"/>
      <point x="218" y="172"/>
      <point x="229" y="187" type="curve" smooth="yes"/>
      <point x="239" y="202"/>
      <point x="256" y="202"/>
      <point x="276" y="197" type="curve" smooth="yes"/>
      <point x="297" y="192" type="line"/>
      <point x="297" y="276" type="line"/>
      <point x="223" y="276" type="line"/>
      <point x="229" y="255" type="line" smooth="yes"/>
      <point x="235" y="235"/>
      <point x="233" y="218"/>
      <point x="219" y="208" type="curve" smooth="yes"/>
      <point x="204" y="197"/>
      <point x="185" y="200"/>
      <point x="161" y="221" type="curve" smooth="yes"/>
      <point x="13" y="356" type="line"/>
      <point x="161" y="491" type="line" smooth="yes"/>
      <point x="185" y="512"/>
      <point x="204" y="514"/>
      <point x="219" y="504" type="curve" smooth="yes"/>
      <point x="233" y="494"/>
      <point x="235" y="476"/>
      <point x="229" y="456" type="curve" smooth="yes"/>
      <point x="223" y="436" type="line"/>
      <point x="297" y="436" type="line"/>
      <point x="297" y="520" type="line"/>
      <point x="276" y="515" type="line" smooth="yes"/>
      <point x="256" y="510"/>
      <point x="239" y="510"/>
      <point x="229" y="525" type="curve" smooth="yes"/>
      <point x="218" y="540"/>
      <point x="221" y="559"/>
      <point x="242" y="582" type="curve" smooth="yes"/>
      <point x="377" y="731" type="line"/>
      <point x="512" y="582" type="line" smooth="yes"/>
      <point x="533" y="559"/>
      <point x="535" y="540"/>
      <point x="525" y="525" type="curve" smooth="yes"/>
      <point x="515" y="510"/>
      <point x="497" y="510"/>
      <point x="477" y="515" type="curve" smooth="yes"/>
      <point x="456" y="520" type="line"/>
      <point x="456" y="436" type="line"/>
      <point x="530" y="436" type="line"/>
      <point x="525" y="456" type="line" smooth="yes"/>
      <point x="520" y="476"/>
      <point x="520" y="494"/>
      <point x="535" y="504" type="curve" smooth="yes"/>
      <point x="550" y="514"/>
      <point x="569" y="512"/>
      <point x="592" y="491" type="curve" smooth="yes"/>
      <point x="741" y="356" type="line"/>
      <point x="592" y="221" type="line" smooth="yes"/>
      <point x="569" y="200"/>
      <point x="550" y="197"/>
      <point x="535" y="208" type="curve" smooth="yes"/>
      <point x="520" y="218"/>
      <point x="520" y="235"/>
      <point x="525" y="255" type="curve" smooth="yes"/>
      <point x="530" y="276" type="line"/>
      <point x="456" y="276" type="line"/>
      <point x="456" y="192" type="line"/>
      <point x="477" y="197" type="line" smooth="yes"/>
      <point x="497" y="202"/>
      <point x="515" y="202"/>
      <point x="525" y="187" type="curve" smooth="yes"/>
      <point x="535" y="172"/>
      <point x="533" y="153"/>
      <point x="512" y="130" type="curve" smooth="yes"/>
    </contour>
  </outline>
</glyph>
<glyph name="fi" format="1">
  <advance width="588"/>
  <unicode hex="FB01"/>
  <outline>
    <contour>
      <point x="459" y="554" type="curve" smooth="yes"/>
      <point x="388" y="554"/>
      <point x="344" y="587"/>
      <point x="344" y="645" type="curve" smooth="yes"/>
      <point x="344" y="699"/>
      <point x="388" y="735"/>
      <point x="459" y="735" type="curve" smooth="yes"/>
      <point x="529" y="735"/>
      <point x="574" y="699"/>
      <point x="574" y="645" type="curve" smooth="yes"/>
      <point x="574" y="587"/>
      <point x="529" y="554"/>
    </contour>
    <contour>
      <point x="50" y="0" type="line"/>
      <point x="50" y="373" type="line"/>
      <point x="5" y="373" type="line"/>
      <point x="5" y="525" type="line"/>
      <point x="50" y="525" type="line"/>
      <point x="50" y="568" type="line" smooth="yes"/>
      <point x="50" y="685"/>
      <point x="112" y="731"/>
      <point x="215" y="731" type="curve" smooth="yes"/>
      <point x="262" y="731"/>
      <point x="299" y="725"/>
      <point x="321" y="717" type="curve"/>
      <point x="321" y="576" type="line"/>
      <point x="308" y="581"/>
      <point x="296" y="582"/>
      <point x="285" y="582" type="curve" smooth="yes"/>
      <point x="264" y="582"/>
      <point x="255" y="571"/>
      <point x="255" y="544" type="curve" smooth="yes"/>
      <point x="255" y="525" type="line"/>
      <point x="320" y="525" type="line"/>
      <point x="320" y="373" type="line"/>
      <point x="258" y="373" type="line"/>
      <point x="258" y="0" type="line"/>
    </contour>
    <contour>
      <point x="349" y="0" type="line"/>
      <point x="349" y="525" type="line"/>
      <point x="564" y="525" type="line"/>
      <point x="564" y="0" type="line"/>
    </contour>
  </outline>
</glyph>
<glyph name="fl" format="1">
  <advance width="586"/>
  <unicode hex="FB02"/>
  <outline>
    <contour>
      <point x="349" y="0" type="line"/>
      <point x="349" y="665" type="line"/>
      <point x="564" y="732" type="line"/>
      <point x="564" y="0" type="line"/>
    </contour>
    <contour>
      <point x="50" y="0" type="line"/>
      <point x="50" y="373" type="line"/>
      <point x="5" y="373" type="line"/>
      <point x="5" y="525" type="line"/>
      <point x="50" y="525" type="line"/>
      <point x="50" y="568" type="line" smooth="yes"/>
      <point x="50" y="685"/>
      <point x="112" y="731"/>
      <point x="215" y="731" type="curve" smooth="yes"/>
      <point x="262" y="731"/>
      <point x="299" y="725"/>
      <point x="321" y="717" type="curve"/>
      <point x="321" y="576" type="line"/>
      <point x="308" y="581"/>
      <point x="296" y="582"/>
      <point x="285" y="582" type="curve" smooth="yes"/>
      <point x="264" y="582"/>
      <point x="255" y="571"/>
      <point x="255" y="544" type="curve" smooth="yes"/>
      <point x="255" y="525" type="line"/>
      <point x="320" y="525" type="line"/>
      <point x="320" y="373" type="line"/>
      <point x="258" y="373" type="line"/>
      <point x="258" y="0" type="line"/>
    </contour>
  </outline>
</glyph>
<glyph name="a.salt" format="1">
  <advance width="508"/>
  <outline>
    <contour>
      <point x="170" y="-11" type="curve" smooth="yes"/>
      <point x="84" y="-11"/>
      <point x="14" y="58"/>
      <point x="14" y="261" type="curve" smooth="yes"/>
      <point x="14" y="467"/>
      <point x="84" y="536"/>
      <point x="174" y="536" type="curve" smooth="yes"/>
      <point x="218" y="536"/>
      <point x="243" y="521"/>
      <point x="271" y="496" type="curve"/>
      <point x="271" y="525" type="line"/>
      <point x="486" y="525" type="line"/>
      <point x="486" y="0" type="line"/>
      <point x="271" y="0" type="line"/>
      <point x="271" y="30" type="line"/>
      <point x="241" y="4"/>
      <point x="216" y="-11"/>
    </contour>
    <contour>
      <point x="255" y="145" type="curve" smooth="yes"/>
      <point x="262" y="145"/>
      <point x="265" y="146"/>
      <point x="271" y="149" type="curve"/>
      <point x="271" y="376" type="line"/>
      <point x="265" y="379"/>
      <point x="262" y="379"/>
      <point x="255" y="379" type="curve" smooth="yes"/>
      <point x="234" y="379"/>
      <point x="220" y="365"/>
      <point x="220" y="262" type="curve" smooth="yes"/>
      <point x="220" y="159"/>
      <point x="234" y="145"/>
    </contour>
  </outline>
</glyph>
<glyph name="bullet" format="1">
  <advance width="540"/>
  <outline>
    <contour>
      <point x="269" y="122" type="curve" smooth="yes"/>
      <point x="131" y="122"/>
      <point x="25" y="228"/>
      <point x="25" y="366" type="curve" smooth="yes"/>
      <point x="25" y="504"/>
      <point x="131" y="612"/>
      <point x="269" y="612" type="curve" smooth="yes"/>
      <point x="409" y="612"/>
      <point x="515" y="504"/>
      <point x="515" y="366" type="curve" smooth="yes"/>
      <point x="515" y="228"/>
      <point x="409" y="122"/>
    </contour>
  </outline>
</glyph>
<glyph name="macron" format="1">
  <advance width="415"/>
  <outline>
    <contour>
      <point x="23" y="566" type="line"/>
      <point x="23" y="710" type="line"/>
      <point x="391" y="710" type="line"/>
      <point x="391" y="566" type="line"/>
    </contour>
  </outline>
</glyph>
<glyph name="registered" format="1">
  <advance width="652"/>
  <outline>
    <contour>
      <point x="325" y="-11" type="curve" smooth="yes"/>
      <point x="131" y="-11"/>
      <point x="26" y="129"/>
      <point x="26" y="349" type="curve" smooth="yes"/>
      <point x="26" y="570"/>
      <point x="132" y="711"/>
      <point x="326" y="711" type="curve" smooth="yes"/>
      <point x="520" y="711"/>
      <point x="627" y="571"/>
      <point x="627" y="351" type="curve" smooth="yes"/>
      <point x="627" y="130"/>
      <point x="519" y="-11"/>
    </contour>
    <contour>
      <point x="326" y="54" type="curve" smooth="yes"/>
      <point x="474" y="54"/>
      <point x="555" y="155"/>
      <point x="555" y="349" type="curve" smooth="yes"/>
      <point x="555" y="543"/>
      <point x="472" y="646"/>
      <point x="325" y="646" type="curve" smooth="yes"/>
      <point x="178" y="646"/>
      <point x="98" y="544"/>
      <point x="98" y="351" type="curve" smooth="yes"/>
      <point x="98" y="157"/>
      <point x="179" y="54"/>
    </contour>
    <contour>
      <point x="189" y="167" type="line"/>
      <point x="189" y="555" type="line"/>
      <point x="339" y="555" type="line" smooth="yes"/>
      <point x="417" y="555"/>
      <point x="474" y="525"/>
      <point x="474" y="433" type="curve" smooth="yes"/>
      <point x="474" y="383"/>
      <point x="454" y="354"/>
      <point x="429" y="333" type="curve"/>
      <point x="485" y="167" type="line"/>
      <point x="352" y="167" type="line"/>
      <point x="318" y="299" type="line"/>
      <point x="314" y="299" type="line"/>
      <point x="314" y="167" type="line"/>
    </contour>
    <contour>
      <point x="314" y="386" type="line"/>
      <point x="322" y="386" type="line" smooth="yes"/>
      <point x="342" y="386"/>
      <point x="351" y="395"/>
      <point x="351" y="425" type="curve" smooth="yes"/>
      <point x="351" y="456"/>
      <point x="342" y="464"/>
      <point x="322" y="464" type="curve" smooth="yes"/>
      <point x="314" y="464" type="line"/>
    </contour>
  </outline>
</glyph>
